/* XPM */
static char *_____________[] = {
/* columns rows colors chars-per-pixel */
"64 64 3 1",
"  c #261F1E",
". c #4D3F37",
"X c #89765F",
/* pixels */
"            ....    XX....    XXXX....              ....      ..",
"            ....    XX....    XXXX....              ....      ..",
"  XXXX              ......    ........  XXXX..                  ",
"  XXXX              ......    ........  XXXX..                  ",
"  XXXX..  XXXX..    ....      ........  XXXX..    ..      XXXX  ",
"  XXXX..  XXXX..    ....      ........  XXXX..    ..      XXXX  ",
"........  XXXX....        ..    ....    XX....    XX..    XXXX  ",
"........  XXXX....        ..    ....    XX....    XX..    XXXX  ",
"..XX....  ......        XXXX..  ..      ......  ..XX....  ....  ",
"..XX....  ......        XXXX..  ..      ......  ..XX....  ....  ",
"  XX....    ....  ..    XXXX..      ..    ....  ........  ....  ",
"  XX....    ....  ..    XXXX..      ..    ....  ........  ....  ",
"  ....      ..          ........                  ....    XX..  ",
"  ....      ..          ........                  ....    XX..  ",
"    ..          XXXX    ........      XX....      ..      ......",
"    ..          XXXX    ........      XX....      ..      ......",
"        ..    XXXXXX    XX......  XXXXXX....      ..          ..",
"        ..    XXXXXX    XX......  XXXXXX....      ..          ..",
"  XXXX      XXXX....      ....    XXXXXX....            ..    ..",
"  XXXX      XXXX....      ....    XXXXXX....            ..    ..",
"  XXXX..    XXXX......      ..    XXXX......  ..  XXXX          ",
"  XXXX..    XXXX......      ..    XXXX......  ..  XXXX          ",
"  XX....    ........    ..        XXXX......      XXXX      ..  ",
"  XX....    ........    ..        XXXX......      XXXX      ..  ",
"XXXX......  ......                ........XX      ......  ....  ",
"XXXX......  ......                ........XX      ......  ....  ",
"XXXX......  XX..        XXXXXX    XX......        XX....  XX..  ",
"XXXX......  XX..        XXXXXX    XX......        XX....  XX..  ",
"..........    ..    ..  XXXX..    ....          XXXX....  XX..  ",
"..........    ..    ..  XXXX..    ....          XXXX....  XX..  ",
"......                  XXXX..      XX      XX  XXXX....  XX..  ",
"......                  XXXX..      XX      XX  XXXX....  XX..  ",
"XX....        XXXX..  XX........    ..    XXXX  ........  XX..  ",
"XX....        XXXX..  XX........    ..    XXXX  ........  XX..  ",
"....          XXXX..  XX........          XX..  XX....    XX    ",
"....          XXXX..  XX........          XX..  XX....    XX    ",
"  ..  ..    XXXX....    XX....XX          ....  ....      ..    ",
"  ..  ..    XXXX....    XX....XX          ....  ....      ..    ",
"            XXXX....        ..XX  XXXX    ....  XX....    ..    ",
"            XXXX....        ..XX  XXXX    ....  XX....    ..    ",
"....        ........        ....  XXXX..  XX..    ..            ",
"....        ........        ....  XXXX..  XX..    ..            ",
"....  XXXX  XX......    ..      XXXX....  ....                  ",
"....  XXXX  XX......    ..      XXXX....  ....                  ",
"..    XXXX  XX..                XXXX....  ....          XXXX    ",
"..    XXXX  XX..                XXXX....  ....          XXXX    ",
"..  XX....  XX        ....      XX......        ..      XX....  ",
"..  XX....  XX        ....      XX......        ..      XX....  ",
"    XX....  ..      XXXX..      ........    XXXX..  ..    ....  ",
"    XX....  ..      XXXX..      ........    XXXX..  ..    ....  ",
"    ......          XXXX..      ......XX    XXXX..  ....  ....  ",
"    ......          XXXX..      ......XX    XXXX..  ....  ....  ",
"..    ....        XXXX....          ..XX  XXXX....  ....  XX..  ",
"..    ....        XXXX....          ..XX  XXXX....  ....  XX..  ",
"        ..  XX..  XXXX....          ....  XX....  XXXX..  XX..  ",
"        ..  XX..  XXXX....          ....  XX....  XXXX..  XX..  ",
"  XX..      XX..  ......      ..          ......  XX....  ..    ",
"  XX..      XX..  ......      ..          ......  XX....  ..    ",
"  XX....  XXXX..                          XX      ......        ",
"  XX....  XXXX..                          XX      ......        ",
"  ......  XX....      XX        XXXX              XX....    ..  ",
"  ......  XX....      XX        XXXX              XX....    ..  ",
"  ....    ......    XXXX..      XXXX..      ..      ....        ",
"  ....    ......    XXXX..      XXXX..      ..      ....        "
};
