/* XPM */
static char *_____________[] = {
/* columns rows colors chars-per-pixel */
"64 64 5 1",
"  c #2A3436",
". c #38464B",
"X c #4A6079",
"o c #87A3AC",
"O c #B9C0AE",
/* pixels */
"XXooOOOOOOOOooooOOOOooooooooXX  XXooOOOOOOOOOOOOooooOOOOooooooXX",
"XXooOOOOOOOOooooOOOOooooooooXX  XXooOOOOOOOOOOOOooooOOOOooooooXX",
"ooXXXXXXXXXXXXXXXXXXXXXXXXXX..  ooXXXXXXXXXXXXXXXXXXXXXXXXXXXX..",
"ooXXXXXXXXXXXXXXXXXXXXXXXXXX..  ooXXXXXXXXXXXXXXXXXXXXXXXXXXXX..",
"ooXXXXXXXXXXXXXXXXXXXXXXXXXX....OOXXXXXXXXXXXXXXXXXXXXXXXXXXXX..",
"ooXXXXXXXXXXXXXXXXXXXXXXXXXX....OOXXXXXXXXXXXXXXXXXXXXXXXXXXXX..",
"ooXXXXXXXXXXXXXXXXXXXXXXXXXX....OOXXXXXXXXXXXXXXXXXXXXXXXXXXXX..",
"ooXXXXXXXXXXXXXXXXXXXXXXXXXX....OOXXXXXXXXXXXXXXXXXXXXXXXXXXXX..",
"ooXXXXXXXXXXXXXXXXXXXXXXXXXX..  ooXXXXXX              XXXXXXXX  ",
"ooXXXXXXXXXXXXXXXXXXXXXXXXXX..  ooXXXXXX              XXXXXXXX  ",
"ooXXXXXXXXXXXXXXXXXXXXXXXXXX..  ooXXXXXX  ....XXXXXXXXooXXXXXX  ",
"ooXXXXXXXXXXXXXXXXXXXXXXXXXX..  ooXXXXXX  ....XXXXXXXXooXXXXXX  ",
"XXXXXXXXXXXX............XXXX..  ooXXXXXX  ..XXXXXXXXXXooXXXXXX  ",
"XXXXXXXXXXXX............XXXX..  ooXXXXXX  ..XXXXXXXXXXooXXXXXX  ",
"....                            ooXXXXXX  XXXXXXXXXXXXooXXXXXX  ",
"....                            ooXXXXXX  XXXXXXXXXXXXooXXXXXX  ",
"    ....        ........    XX..OOXXXXXX..XXXXXXXXXXXXooXXXXXX..",
"    ....        ........    XX..OOXXXXXX..XXXXXXXXXXXXooXXXXXX..",
"  ........................  XX..OOXXXXXX..XXXXXXXXXXXXooXXXXXX..",
"  ........................  XX..OOXXXXXX..XXXXXXXXXXXXooXXXXXX..",
"..XXXXXXXXXXXXXXXXXXXXXXXX..oo..ooXXXXXX..XXXXXXXXXXXXOOXXXXXX  ",
"..XXXXXXXXXXXXXXXXXXXXXXXX..oo..ooXXXXXX..XXXXXXXXXXXXOOXXXXXX  ",
"..XXXXXXXXXXXXXXXXXXXXXXXX..oo..ooXXXXXXXXOOOOOOOOOOOOOOXXXXXX  ",
"..XXXXXXXXXXXXXXXXXXXXXXXX..oo..ooXXXXXXXXOOOOOOOOOOOOOOXXXXXX  ",
"..XXXXXXXXXXXXXXXXXXXXXXXXXXOO  ooXXXXXXXXXXXXXXXXXXXXXXXXXXXX  ",
"..XXXXXXXXXXXXXXXXXXXXXXXXXXOO  ooXXXXXXXXXXXXXXXXXXXXXXXXXXXX  ",
"XXXXXXXXXXXXXXXXXXXXXXXXXXXXOO  ooXXXXXXXXXXXXXXXXXXXXXXXXXXXX  ",
"XXXXXXXXXXXXXXXXXXXXXXXXXXXXOO  ooXXXXXXXXXXXXXXXXXXXXXXXXXXXX  ",
"XXOOOOOOooooooooOOOOOOOOOOoooo  ooXXXXXXXXXXXXXXXXXXXXXXXXXXXX  ",
"XXOOOOOOooooooooOOOOOOOOOOoooo  ooXXXXXXXXXXXXXXXXXXXXXXXXXXXX  ",
"    ............    ........    XX......    ............        ",
"    ............    ........    XX......    ............        ",
"XXooooooOOOOOOOOOOOOooooooooooXXOOOOooooOOOOOOOOOOOOooooooooooXX",
"XXooooooOOOOOOOOOOOOooooooooooXXOOOOooooOOOOOOOOOOOOooooooooooXX",
"ooXXXXXXXXXXXXXXXXXXXXXXXXXXXX..ooXXXXXXXXXXXXXXXXXXXXXXXXXXXX..",
"ooXXXXXXXXXXXXXXXXXXXXXXXXXXXX..ooXXXXXXXXXXXXXXXXXXXXXXXXXXXX..",
"OOXXXXXXXXXXXXXXXXXXXXXXXXXXXX..ooXXXXXXXXXXXXXXXXXXXXXXXXXXXX..",
"OOXXXXXXXXXXXXXXXXXXXXXXXXXXXX..ooXXXXXXXXXXXXXXXXXXXXXXXXXXXX..",
"OOXXXXXXXXXXXXXXXXXXXXXXXXXXXX..ooXXXXXXXXXXXXXXXXXXXXXXXXXXXX..",
"OOXXXXXXXXXXXXXXXXXXXXXXXXXXXX..ooXXXXXXXXXXXXXXXXXXXXXXXXXXXX..",
"OOXXXXXXOOOOOOOOOOOOOOXXXXXXXX  ooXXXXXXXXXXXXXXXXXXXXXXXXXXXX..",
"OOXXXXXXOOOOOOOOOOOOOOXXXXXXXX  ooXXXXXXXXXXXXXXXXXXXXXXXXXXXX..",
"OOXXXXXXOOXXXXXXXXXXXX  XXXXXX  ooXXXXXXXXXXXXXXXXXXXXXXXXXXXX..",
"OOXXXXXXOOXXXXXXXXXXXX  XXXXXX  ooXXXXXXXXXXXXXXXXXXXXXXXXXXXX..",
"ooXXXXXXooXXXXXXXXXXXX  ..XXXX  XXXX....XXXXXXXX....XXXX....XX  ",
"ooXXXXXXooXXXXXXXXXXXX  ..XXXX  XXXX....XXXXXXXX....XXXX....XX  ",
"ooXXXXXXooXXXXXXXXXXXX  ..XXXX  ....                            ",
"ooXXXXXXooXXXXXXXXXXXX  ..XXXX  ....                            ",
"OOXXXXXXooXXXXXXXXXXXX  ..XXXX      ....        ........    XX..",
"OOXXXXXXooXXXXXXXXXXXX  ..XXXX      ....        ........    XX..",
"OOXXXXXXooXXXXXXXXXXXX  ..XXXX    ........................  XX..",
"OOXXXXXXooXXXXXXXXXXXX  ..XXXX    ........................  XX..",
"ooXXXXXXooXXXXXXXXXXXX..XXXXXX  ..XXXXXXXXXXXXXXXXXXXXXXXX..oo..",
"ooXXXXXXooXXXXXXXXXXXX..XXXXXX  ..XXXXXXXXXXXXXXXXXXXXXXXX..oo..",
"ooXXXXXXXX          ....XXXXXX  ..XXXXXXXXXXXXXXXXXXXXXXXX..OO..",
"ooXXXXXXXX          ....XXXXXX  ..XXXXXXXXXXXXXXXXXXXXXXXX..OO..",
"ooXXXXXXXXXXXXXX....XXXXXXXXXX....XXXXXXXXXXXXXXXXXXXXXXXXXXOO  ",
"ooXXXXXXXXXXXXXX....XXXXXXXXXX....XXXXXXXXXXXXXXXXXXXXXXXXXXOO  ",
"ooXXXXXXXXXXXXXXXXXXXXXXXXXXXX..XXXXXXXXXXXXXXXXXXXXXXXXXXXXOO  ",
"ooXXXXXXXXXXXXXXXXXXXXXXXXXXXX..XXXXXXXXXXXXXXXXXXXXXXXXXXXXOO  ",
"ooXXXXXXXXXXXXXXXXXXXXXXXXXXXX  XXooooooOOOOOOOOooooOOOOOOOOoo  ",
"ooXXXXXXXXXXXXXXXXXXXXXXXXXXXX  XXooooooOOOOOOOOooooOOOOOOOOoo  ",
"XX..........    ............    ................    ........    ",
"XX..........    ............    ................    ........    "
};
