/* XPM */
static char *_____________[] = {
/* columns rows colors chars-per-pixel */
"64 64 5 1",
"  c #332A27",
". c #5B3931",
"X c #733530",
"o c #7E5140",
"O c #A85938",
/* pixels */
"................................................................",
"................................................................",
"oooooooooooooooooooooooooooooooooooooooooooooooooooooooooooooooo",
"oooooooooooooooooooooooooooooooooooooooooooooooooooooooooooooooo",
"                                                                ",
"                                                                ",
"                                                                ",
"                                                                ",
"          XXOOOOXX                                              ",
"          XXOOOOXX                                              ",
"          XXXXXXXX        ....  ....                    ....    ",
"          XXXXXXXX        ....  ....                    ....    ",
"  XXOOXX  XXOOOOXX  OOOO  oooo  XXXX          oooo      ooooOOOO",
"  XXOOXX  XXOOOOXX  OOOO  oooo  XXXX          oooo      ooooOOOO",
"  XXOOXX  XXOOOOXX  XXXX  ....  ....  XXOOOOXX....      ooooXXXX",
"  XXOOXX  XXOOOOXX  XXXX  ....  ....  XXOOOOXX....      ooooXXXX",
"  XXXXXX  XXXXXXXX  XXXX  oooo  ....  XXXXXXXX....      ....XXXX",
"  XXXXXX  XXXXXXXX  XXXX  oooo  ....  XXXXXXXX....      ....XXXX",
"  XXOOXX  XXOOOOXX  OOOO  ....  ....  XXOOOOXX....      ....OOOO",
"  XXOOXX  XXOOOOXX  OOOO  ....  ....  XXOOOOXX....      ....OOOO",
"  XXOOXX  XXOOOOXX  OOOO  oooo  ....  XXXXXXXXoooo      ooooOOOO",
"  XXOOXX  XXOOOOXX  OOOO  oooo  ....  XXXXXXXXoooo      ooooOOOO",
"  XXOOXX  XXOOOOXX  XXXX  ....  XXXX  XXOOOOXX....      XXXXOOOO",
"  XXOOXX  XXOOOOXX  XXXX  ....  XXXX  XXOOOOXX....      XXXXOOOO",
"  ......  ..XXXXXX  XXXX  ....  ....  ..XXXX..oooo      ....XXXX",
"  ......  ..XXXXXX  XXXX  ....  ....  ..XXXX..oooo      ....XXXX",
"  ..XX..  ..XXXX..  ....  ....  ....  ............      ........",
"  ..XX..  ..XXXX..  ....  ....  ....  ............      ........",
"..oooooooooooooooooooooooooooooooooooooooooooooooooooooooooooo..",
"..oooooooooooooooooooooooooooooooooooooooooooooooooooooooooooo..",
"  ............................................................  ",
"  ............................................................  ",
"                                                                ",
"                                                                ",
"                                                                ",
"                                                                ",
"                                                                ",
"                                                                ",
"        OOOO                            XXOOXX                  ",
"        OOOO                            XXOOXX                  ",
"        XXXX                            XXXXXX          XXOOXX  ",
"        XXXX                            XXXXXX          XXOOXX  ",
"..OO..  XXXX      XXOOOOXX              XXOOXX          XXXXXX  ",
"..OO..  XXXX      XXOOOOXX              XXOOXX          XXXXXX  ",
"......  OOOO      XXXXXXXX        OOXX  XXXXXX  ..OO..  XXXXXX  ",
"......  OOOO      XXXXXXXX        OOXX  XXXXXX  ..OO..  XXXXXX  ",
"..OO..  XXXX  ....XXOOOOXX        XXXX  XXOOXX  ......  XXXXXX  ",
"..OO..  XXXX  ....XXOOOOXX        XXXX  XXOOXX  ......  XXXXXX  ",
"......  OOOO  ooooXXOOOOXX        OOOO  XXOOXX  ......  XXOOXX  ",
"......  OOOO  ooooXXOOOOXX        OOOO  XXOOXX  ......  XXOOXX  ",
"..OO..  OOOO  ....XXXXXXXX        XXXX  XXOOXX  ..OO..  XXOOXX  ",
"..OO..  OOOO  ....XXXXXXXX        XXXX  XXOOXX  ..OO..  XXOOXX  ",
"..OO..  XXXX  ....XXOOOOXX        OOXX  XXOOXX  ......  XXOOXX  ",
"..OO..  XXXX  ....XXOOOOXX        OOXX  XXOOXX  ......  XXOOXX  ",
"..XX..  ....  ......XXXX..        XX..  ......  ..XX..  ..XX..  ",
"..XX..  ....  ......XXXX..        XX..  ......  ..XX..  ..XX..  ",
"......  ....  ......XXXX..        XX..  ......  ..XX..  ..XX..  ",
"......  ....  ......XXXX..        XX..  ......  ..XX..  ..XX..  ",
"oooooooooooooooooooooooooooooooooooooooooooooooooooooooooooooooo",
"oooooooooooooooooooooooooooooooooooooooooooooooooooooooooooooooo",
"                                                                ",
"                                                                ",
"................................................................",
"................................................................"
};
