/* XPM */
static char *_____________[] = {
/* columns rows colors chars-per-pixel */
"64 64 3 1",
"  c #332A27",
". c #623C36",
"X c #976747",
/* pixels */
"..  ..XX..  ......    ..    XX....    ..      ........    XX....",
"..  ..XX..  ......    ..    XX....    ..      ........    XX....",
"    ......        XXXX      ......      XXXXXX    ....    ....  ",
"    ......        XXXX      ......      XXXXXX    ....    ....  ",
"..          XXXXXXXXXX                  XXXXXX..      ..        ",
"..          XXXXXXXXXX                  XXXXXX..      ..        ",
"....  XXXX  XXXXXX......    ..XXXX..  ..XX........  ..  XXXX  ..",
"....  XXXX  XXXXXX......    ..XXXX..  ..XX........  ..  XXXX  ..",
"  XXXXXXXX    ..........  XXXXXXXX      ......XX    XXXXXXXX    ",
"  XXXXXXXX    ..........  XXXXXXXX      ......XX    XXXXXXXX    ",
"  XXXX......    ......    XXXXXX....      ..XX      XXXX......  ",
"  XXXX......    ......    XXXXXX....      ..XX      XXXX......  ",
"  ......XX..              ..........                ..........  ",
"  ......XX..              ..........                ..........  ",
"    ......      ......        ....    ..    ..          ....    ",
"    ......      ......        ....    ..    ..          ....    ",
"                ..XX..                ........  ....            ",
"                ..XX..                ........  ....            ",
"..      ......  ........  ......        ....    XX....  ..    ..",
"..      ......  ........  ......        ....    XX....  ..    ..",
"..    ..XX....  XXXX    ..XXXX....  ..    XXXX  ....    ....  XX",
"..    ..XX....  XXXX    ..XXXX....  ..    XXXX  ....    ....  XX",
"..      ......XXXXXX..    ......  ......XXXXXX                ..",
"..      ......XXXXXX..    ......  ......XXXXXX                ..",
"..  XXXX    XXXXXXXX....          ..  XXXXXX....  ....  XXXX    ",
"..  XXXX    XXXXXXXX....          ..  XXXXXX....  ....  XXXX    ",
"    XXXXXX  XXXX........    ..XXXX    XXXX......    XXXXXXXX    ",
"    XXXXXX  XXXX........    ..XXXX    XXXX......    XXXXXXXX    ",
"XXXXXX..XX    ........XX  XXXXXXXX    ........XX..  XXXX....    ",
"XXXXXX..XX    ........XX  XXXXXXXX    ........XX..  XXXX....    ",
"XXXX......    ......XX..  XXXX......  ......XX....  ..........  ",
"XXXX......    ......XX..  XXXX......  ......XX....  ..........  ",
"  ..........    ......    XX........    ........  ............  ",
"  ..........    ......    XX........    ........  ............  ",
"  ......XX..              ........        ..        ....XX..    ",
"  ......XX..              ........        ..        ....XX..    ",
"      ....      ..  ..      ....      ..        ..    ....      ",
"      ....      ..  ..      ....      ..        ..    ....      ",
"....            XXXX....              ..        XX....        ..",
"....            XXXX....              ..        XX....        ..",
"....  ....  ..  ........        ....    ....  ..XX....          ",
"....  ....  ..  ........        ....    ....  ..XX....          ",
"        ......            ....  XX....  ....    ....    ......  ",
"        ......            ....  XX....  ....    ....    ......  ",
"XX....  ......XXXXXXXX  ......  ......XXXXXXXX        ........  ",
"XX....  ......XXXXXXXX  ......  ......XXXXXXXX        ........  ",
"....        XXXXXXXXXX    ....      XXXXXXXXXX..                ",
"....        XXXXXXXXXX    ....      XXXXXXXXXX..                ",
"            XXXX......      XXXX    XXXXXX........    XXXXXX    ",
"            XXXX......      XXXX    XXXXXX........    XXXXXX    ",
"  XXXX        ........    XXXXXX..    ......XX..  XXXXXXXXXX..  ",
"  XXXX        ........    XXXXXX..    ......XX..  XXXXXXXXXX..  ",
"  XXXXXX..      ....    XXXX........    ......    XXXX........  ",
"  XXXXXX..      ....    XXXX........    ......    XXXX........  ",
"  XX......  ..          XXXX....XX..              ........XX....",
"  XX......  ..          XXXX....XX..              ........XX....",
"  ........  ......        ....XX..        ......  ......XX....  ",
"  ........  ......        ....XX..        ......  ......XX....  ",
"    ......    ..    ....    ......  ..      ....    ........    ",
"    ......    ..    ....    ......  ..      ....    ........    ",
"..                  ......          ......                      ",
"..                  ......          ......                      ",
"..  ....    ....    ....      ..    XXXX..      ....      ......",
"..  ....    ....    ....      ..    XXXX..      ....      ......"
};
