/* XPM */
static char *_____________[] = {
/* columns rows colors chars-per-pixel */
"64 64 5 1",
"  c #3C352B",
". c #415039",
"X c #437348",
"o c #81925B",
"O c #B9C0AE",
/* pixels */
"XXooooooooooOOOOOOOOooooOOOOOOOOOOOOOOOOOOOOOOOOOOOOOOOOooooooXX",
"XXooooooooooOOOOOOOOooooOOOOOOOOOOOOOOOOOOOOOOOOOOOOOOOOooooooXX",
"ooooOOXXXXXXXXXXXXXXXXXXXXXXXXOO  ..XXXXXXXXXXXXXXXXXXXXXXXXXX..",
"ooooOOXXXXXXXXXXXXXXXXXXXXXXXXOO  ..XXXXXXXXXXXXXXXXXXXXXXXXXX..",
"ooOOooOOOOOOOOXXXXXXXXXXXXXXXXOO  ..XXXXXXXXXXXXooOOOOOOOOXXXX..",
"ooOOooOOOOOOOOXXXXXXXXXXXXXXXXOO  ..XXXXXXXXXXXXooOOOOOOOOXXXX..",
"ooXXOOooooooXX  XXXXXXXXXXXXXXoo....XXXXXXXXXXXXOOooooooXX  XX..",
"ooXXOOooooooXX  XXXXXXXXXXXXXXoo....XXXXXXXXXXXXOOooooooXX  XX..",
"ooXXooooXXXX..  XXXXXXXXXXXXXXoo  ..XXXXXXXXXXXXooooXXXX..  XX..",
"ooXXooooXXXX..  XXXXXXXXXXXXXXoo  ..XXXXXXXXXXXXooooXXXX..  XX..",
"ooXXooooXXXX..  XXXXXXXXXXXXXXoo....XXXXXXXXXXXXooooXXXX..  XX..",
"ooXXooooXXXX..  XXXXXXXXXXXXXXoo....XXXXXXXXXXXXooooXXXX..  XX..",
"OOXXooXX......  XXXXXXXXXXXXXXOO....XXXXXXXXXXXXooXX......  XX..",
"OOXXooXX......  XXXXXXXXXXXXXXOO....XXXXXXXXXXXXooXX......  XX..",
"OOXXXX        ..XXXXooooOOOOOOOOooooooooooooXXXXXX        ..XX..",
"OOXXXX        ..XXXXooooOOOOOOOOooooooooooooXXXXXX        ..XX..",
"ooXXXXXXXXXXXXXXooooOOOOOOOOOOOOOOOOOOOOooooooXXXXXXXXXXXXXXXX..",
"ooXXXXXXXXXXXXXXooooOOOOOOOOOOOOOOOOOOOOooooooXXXXXXXXXXXXXXXX..",
"ooXXXXXXXXXXXXXXooooXXXXXXXXXXXXXXXXXXXXXXXXXX..XXXXXXXXXXXXXX..",
"ooXXXXXXXXXXXXXXooooXXXXXXXXXXXXXXXXXXXXXXXXXX..XXXXXXXXXXXXXX..",
"ooXXXXXXXXXXXXooOOXXXXXXXXXXXXXXXXXXXXXXXXXXXX....XXXXXXXXXXXX  ",
"ooXXXXXXXXXXXXooOOXXXXXXXXXXXXXXXXXXXXXXXXXXXX....XXXXXXXXXXXX  ",
"ooXXXXXXXXXXXXooOOXXXX..................XXXXXX....XXXXXXXXXXXX  ",
"ooXXXXXXXXXXXXooOOXXXX..................XXXXXX....XXXXXXXXXXXX  ",
"ooXXXXXXXXXXXXooOOXXXX..              XXooXXXX..  XXXXXXXXXXXX..",
"ooXXXXXXXXXXXXooOOXXXX..              XXooXXXX..  XXXXXXXXXXXX..",
"ooXXXXXXXXXXXXooOOXXXX..  ....XXXXXXXXOOooXXXX..  XXXXXXXXXXXX..",
"ooXXXXXXXXXXXXooOOXXXX..  ....XXXXXXXXOOooXXXX..  XXXXXXXXXXXX..",
"ooXXXXXXXXXXXXooooXXXX..  ..XXXXXXXXXXOOooXXXX....XXXXXXXXXXXX..",
"ooXXXXXXXXXXXXooooXXXX..  ..XXXXXXXXXXOOooXXXX....XXXXXXXXXXXX..",
"ooOOOOOOooooooooooXXXX..  XXXXXXXXXXXXOOooXXXX........oooooooo..",
"ooOOOOOOooooooooooXXXX..  XXXXXXXXXXXXOOooXXXX........oooooooo..",
"oo        ....ooOOXXXX..  XXXXXXXXXXXXooooXXXX..          ....  ",
"oo        ....ooOOXXXX..  XXXXXXXXXXXXooooXXXX..          ....  ",
"oo............ooOOXXXX..  XXXXXXXXXXXXooooXXXX..    ..........  ",
"oo............ooOOXXXX..  XXXXXXXXXXXXooooXXXX..    ..........  ",
"ooXXXXXXXXXXXXooOOXXXX..  XXXXXXXXXXXXOOooXXXX..  ..XXXXXXXXXX  ",
"ooXXXXXXXXXXXXooOOXXXX..  XXXXXXXXXXXXOOooXXXX..  ..XXXXXXXXXX  ",
"ooXXXXXXXXXXXXooOOXXXX..XXOOOOOOOOOOOOOOooXXXX..  ..XXXXXXXXXX  ",
"ooXXXXXXXXXXXXooOOXXXX..XXOOOOOOOOOOOOOOooXXXX..  ..XXXXXXXXXX  ",
"XXXXXXXXXXXXXXooooXXXXXXooooooooooooooooooXXXX..  XXXXXXXXXXXX..",
"XXXXXXXXXXXXXXooooXXXXXXooooooooooooooooooXXXX..  XXXXXXXXXXXX..",
"XXXXXXXXXXXXXXooooXXXXXXXXXXXXXXXXXXXXXXXXXXXX..  XXXXXXXXXXXX..",
"XXXXXXXXXXXXXXooooXXXXXXXXXXXXXXXXXXXXXXXXXXXX..  XXXXXXXXXXXX..",
"ooXXXXXXXXXXXXXXooXXXXXXXXXXXXXXXXXXXXXXXXXX..  ..XXXXXXXXXXXX  ",
"ooXXXXXXXXXXXXXXooXXXXXXXXXXXXXXXXXXXXXXXXXX..  ..XXXXXXXXXXXX  ",
"ooXXXXXXXXXXXXXXXX..............    ....        XXXXXXXXXXXXXX  ",
"ooXXXXXXXXXXXXXXXX..............    ....        XXXXXXXXXXXXXX  ",
"XXXXooOOOOOOOOXXXXXX....                    XXXXooOOOOOOOOXXXX  ",
"XXXXooOOOOOOOOXXXXXX....                    XXXXooOOOOOOOOXXXX  ",
"XXXXOOooooooXX  XXXXXXXXXXXXXX    ......XXXXXXXXOOooooooXX  XX  ",
"XXXXOOooooooXX  XXXXXXXXXXXXXX    ......XXXXXXXXOOooooooXX  XX  ",
"XXXXooooXXXX..  XXXXXXXXXXXXXX..  ..XXXXXXXXXXXXooooXXXX..  XX..",
"XXXXooooXXXX..  XXXXXXXXXXXXXX..  ..XXXXXXXXXXXXooooXXXX..  XX..",
"XXXXooooXXXX..  XXXXXXXXXXXXXXoo....XXXXXXXXXXXXooooXXXX..  XX..",
"XXXXooooXXXX..  XXXXXXXXXXXXXXoo....XXXXXXXXXXXXooooXXXX..  XX..",
"ooXXooXX......  XXXXXXXXXXXXXXoo....XXXXXXXXXXXXooXX......  XX  ",
"ooXXooXX......  XXXXXXXXXXXXXXoo....XXXXXXXXXXXXooXX......  XX  ",
"ooXXXX        ..XXXXXXXXXXXXXXoo  ..XXXXXXXXXXXXXX        ....  ",
"ooXXXX        ..XXXXXXXXXXXXXXoo  ..XXXXXXXXXXXXXX        ....  ",
"ooXXXXXXXXXXXXXXXXXXXXXXXXXXXXoo....XXXXXXXXXXXXXXXXXXXXXX..    ",
"ooXXXXXXXXXXXXXXXXXXXXXXXXXXXXoo....XXXXXXXXXXXXXXXXXXXXXX..    ",
"XX..............    ....                                        ",
"XX..............    ....                                        "
};
