/* XPM */
static char *_____________[] = {
/* columns rows colors chars-per-pixel */
"64 64 5 1",
"  c #583913",
". c #884F2D",
"X c #A38953",
"o c #C8B065",
"O c #E3E5CE",
/* pixels */
"ooOOOOOOOOOOOOOOOOOOOOOOOOOOOOOOOOOOOOOOOOooooooooooOOOOOOOOOOoo",
"ooOOOOOOOOOOOOOOOOOOOOOOOOOOOOOOOOOOOOOOOOooooooooooOOOOOOOOOOoo",
"OOooOOOOOOOOOOOOOOOOOOOOOOOOOOOOOOOOOOOOooooooOOOOOOOOOOOOOOooXX",
"OOooOOOOOOOOOOOOOOOOOOOOOOOOOOOOOOOOOOOOooooooOOOOOOOOOOOOOOooXX",
"OOOOooOOOOOOooooooooOOOOOOOOOOOOOOOOooooooOOOOOOOOOOOOOOooooXX..",
"OOOOooOOOOOOooooooooOOOOOOOOOOOOOOOOooooooOOOOOOOOOOOOOOooooXX..",
"ooOOOOXXXXXXXXXXXXXXXXXXXXXXXXXXXXXXXXXXXXXXXXXXXXXXXXXXXXXX....",
"ooOOOOXXXXXXXXXXXXXXXXXXXXXXXXXXXXXXXXXXXXXXXXXXXXXXXXXXXXXX....",
"ooOOOOXXXXXXXXXXXXXXXXXXXXXXXXXXooooXXXXXXXXXXXXXXXXXXXXXX....  ",
"ooOOOOXXXXXXXXXXXXXXXXXXXXXXXXXXooooXXXXXXXXXXXXXXXXXXXXXX....  ",
"ooOOOOXXXXooooooooooooooooooooooooooooooooooooooooooooXXXX....  ",
"ooOOOOXXXXooooooooooooooooooooooooooooooooooooooooooooXXXX....  ",
"ooooOOXXXXoo                                      ooooXXXX....  ",
"ooooOOXXXXoo                                      ooooXXXX....  ",
"ooooOOXXXXoo  ..............XX....XX..............oooo..XX....  ",
"ooooOOXXXXoo  ..............XX....XX..............oooo..XX....  ",
"ooooOOXXoooo  ....XX......ooooXXXXooXX......XX....ooXX..XX..    ",
"ooooOOXXoooo  ....XX......ooooXXXXooXX......XX....ooXX..XX..    ",
"ooooOOXXoooo  ..XXXX....OOooXXXXXXXXooXX....XXXX..ooXXXXXX..    ",
"ooooOOXXoooo  ..XXXX....OOooXXXXXXXXooXX....XXXX..ooXXXXXX..    ",
"ooooOOXXXXoo  ........OOooXXXX....XXXXooXX........ooooXXXX      ",
"ooooOOXXXXoo  ........OOooXXXX....XXXXooXX........ooooXXXX      ",
"ooooOOXXXXoo  ......OOOOXX..        ..XXOOXX......ooooXXXX      ",
"ooooOOXXXXoo  ......OOOOXX..        ..XXOOXX......ooooXXXX      ",
"ooooooXXXXoo  ....OOooXX..  XXXXXXXX  ..XXooXX....ooooXXXX      ",
"ooooooXXXXoo  ....OOooXX..  XXXXXXXX  ..XXooXX....ooooXXXX      ",
"ooooooXXXXoo  ..ooooXX..  XXXXoo..XXXX  ..XXooXX..OOooXXXX      ",
"ooooooXXXXoo  ..ooooXX..  XXXXoo..XXXX  ..XXooXX..OOooXXXX      ",
"ooooOOXXXXoo  XXooXX..  XXXXooOO....XXXX....XXooXXOOooXXXX..    ",
"ooooOOXXXXoo  XXooXX..  XXXXooOO....XXXX....XXooXXOOooXXXX..    ",
"ooooOOXXXXoo  ..XX....XXXXooOO  XX....XXXX....XX..OOooXXXX..    ",
"ooooOOXXXXoo  ..XX....XXXXooOO  XX....XXXX....XX..OOooXXXX..    ",
"ooooooXXXXoo  ..XXXXooXXXX....XXoo    XXXXooXXXX..OOooXXXX..    ",
"ooooooXXXXoo  ..XXXXooXXXX....XXoo    XXXXooXXXX..OOooXXXX..    ",
"ooooooXXXXoo    ..XXooooXXXX....    XXXXooooXX    ooooXXXX..    ",
"ooooooXXXXoo    ..XXooooXXXX....    XXXXooooXX    ooooXXXX..    ",
"ooXXooXXXXoo  ..  ..XXooooXXXX..  XXXXOOooXX    ..OOooXXXX..    ",
"ooXXooXXXXoo  ..  ..XXooooXXXX..  XXXXOOooXX    ..OOooXXXX..    ",
"ooXXooXXXXoo  ....  ..XXooooXXXXXXXXOOooXX    ....OOooXXXX..    ",
"ooXXooXXXXoo  ....  ..XXooooXXXXXXXXOOooXX    ....OOooXXXX..    ",
"XXXXOOXXXXoo  ......  ..XXooOOOOOOOOooXX    ......ooooXXXX..    ",
"XXXXOOXXXXoo  ......  ..XXooOOOOOOOOooXX    ......ooooXXXX..    ",
"XXXXOOXXXXoo  ........  ..XXXXooooXXXX    ........ooooXXXX....  ",
"XXXXOOXXXXoo  ........  ..XXXXooooXXXX    ........ooooXXXX....  ",
"XXXXooXXXXoo  ..XXXX....  ..XXXXXXXX    ....ooXX..OOooooXX....  ",
"XXXXooXXXXoo  ..XXXX....  ..XXXXXXXX    ....ooXX..OOooooXX....  ",
"XXXXooXXXXoo  ....XX......  ..XXXX    ......XX....OOooooXX......",
"XXXXooXXXXoo  ....XX......  ..XXXX    ......XX....OOooooXX......",
"XXooooXXXXoo  ..............  ....  ..............OOooXXXX..  ..",
"XXooooXXXXoo  ..............  ....  ..............OOooXXXX..  ..",
"ooooooXXXXooOOOOOOOOOOOOOOOOOOOOooooooOOOOOOOOOOOOOOooXXXX..    ",
"ooooooXXXXooOOOOOOOOOOOOOOOOOOOOooooooOOOOOOOOOOOOOOooXXXX..    ",
"XXXXooXXXXooooooooooooooooXXooooooooooooooooooooXXXXooXXXX..    ",
"XXXXooXXXXooooooooooooooooXXooooooooooooooooooooXXXXooXXXX..    ",
"XXXXooXXXXXXXXXXXXXXXXXX....ooooXXXXXXXXXXXXXXXX....XXXXXX..    ",
"XXXXooXXXXXXXXXXXXXXXXXX....ooooXXXXXXXXXXXXXXXX....XXXXXX..    ",
"XXooXX..XXXXXXXXXXXXXXXXXXXXXXXXXXXXXXXXXXXXXXXXXXXXXXXXXX....  ",
"XXooXX..XXXXXXXXXXXXXXXXXXXXXXXXXXXXXXXXXXXXXXXXXXXXXXXXXX....  ",
"ooXX..                                                    ....  ",
"ooXX..                                                    ....  ",
"XX..            ....                  ..                    ....",
"XX..            ....                  ..                    ....",
"..          ........              ......                      ..",
"..          ........              ......                      .."
};
