/* XPM */
static char *_____________[] = {
/* columns rows colors chars-per-pixel */
"64 64 3 1",
"  c #57573B",
". c #576E3E",
"X c #7E8A58",
/* pixels */
"XXXX..  ....XXXX..    ....XXXX..  ..........  ........XXXX......",
"XXXX..  ....XXXX..    ....XXXX..  ..........  ........XXXX......",
"XXXX      ....XX..    ..XXXX....  ..XXXX....  ....XXXXXX..    ..",
"XXXX      ....XX..    ..XXXX....  ..XXXX....  ....XXXXXX..    ..",
"....      ......      ..XX....    ....XXXX..  ....XX....    ....",
"....      ......      ..XX....    ....XXXX..  ....XX....    ....",
"........  ........    XXXX....    ......XX............    ..XXXX",
"........  ........    XXXX....    ......XX............    ..XXXX",
"..........................  ............  ................  XXXX",
"..........................  ............  ................  XXXX",
"XX....  ..XXXXXX......      ......XX..    ....XXXX........    ..",
"XX....  ..XXXXXX......      ......XX..    ....XXXX........    ..",
"XXXXXX    ....XXXX..      ......XXXX..  XXXX....XX....XXXX..    ",
"XXXXXX    ....XXXX..      ......XXXX..  XXXX....XX....XXXX..    ",
"....XX..  ....XXXX..............XX..  ....XX....XX..XXXX..  ....",
"....XX..  ....XXXX..............XX..  ....XX....XX..XXXX..  ....",
"........  ......XX......XXXXXX..XX    ..........XXXXXX..      ..",
"........  ......XX......XXXXXX..XX    ..........XXXXXX..      ..",
"......XXXX    ....  ....  XXXXXX......XXXX..  ....XXXX      ....",
"......XXXX    ....  ....  XXXXXX......XXXX..  ....XXXX      ....",
"    ..XXXX..  ..    ..    ..XXXX    ..XXXX..  ........    ......",
"    ..XXXX..  ..    ..    ..XXXX    ..XXXX..  ........    ......",
"..    ......      ....    ......      ....    XXXX..........XX..",
"..    ......      ....    ......      ....    XXXX..........XX..",
"..    ......      XXXXXX    ....      ....    XX..........XX....",
"..    ......      XXXXXX    ....      ....    XX..........XX....",
"....XXXXXXXX    ..XXXX  ..  ......  ......  ........XXXX..XX    ",
"....XXXXXXXX    ..XXXX  ..  ......  ......  ........XXXX..XX    ",
"........XXXX..  ..XX..  ....XXXX............XXXX......XXXXXX    ",
"........XXXX..  ..XX..  ....XXXX............XXXX......XXXXXX    ",
"....  ....XXXX  ....    ......XXXX....XX..  XXXX........XX..  ..",
"....  ....XXXX  ....    ......XXXX....XX..  XXXX........XX..  ..",
"XX    ....XXXX......  ..........XX..XXXX..    ....    ........XX",
"XX    ....XXXX......  ..........XX..XXXX..    ....    ........XX",
"..    ..................XXXX....XXXXXX......    ..          ..XX",
"..    ..................XXXX....XXXXXX......    ..          ..XX",
"..  ..XXXX..  ..XXXXXX....XXXX..XXXX....XXXX  ....        ....XX",
"..  ..XXXX..  ..XXXXXX....XXXX..XXXX....XXXX  ....        ....XX",
"..  ..XX..      ..XXXX......XXXX....  ..XX..    XXXX      ......",
"..  ..XX..      ..XXXX......XXXX....  ..XX..    XXXX      ......",
"..    ..      ......XX......XXXX..............  ..XX............",
"..    ..      ......XX......XXXX..............  ..XX............",
"XX......  ....XX..........    ....XXXX..XXXXXX....XX....XXXX..XX",
"XX......  ....XX..........    ....XXXX..XXXXXX....XX....XXXX..XX",
"XX..........XXXX......  ..      ..XX..  ..XXXXXX..XXXX..XX....XX",
"XX..........XXXX......  ..      ..XX..  ..XXXXXX..XXXX..XX....XX",
"....XXXX....XX......    ..XXXX......      ....XX..XXXXXXXX......",
"....XXXX....XX......    ..XXXX......      ....XX..XXXXXXXX......",
"......XX..XXXX....XX    ..XXXX......        ........XX......  ..",
"......XX..XXXX....XX    ..XXXX......        ........XX......  ..",
"..    ..XXXX....XXXX    ........XX......  ..XXXX......    ..    ",
"..    ..XXXX....XXXX    ........XX......  ..XXXX......    ..    ",
"..      XXXX..XXXX..............XX....XX....XXXX....      ..    ",
"..      XXXX..XXXX..............XX....XX....XXXX....      ..    ",
"....    ......XX    ....XXXX....XX..XXXX..........      ........",
"....    ......XX    ....XXXX....XX..XXXX..........      ........",
"XXXX......  ..    ........XXXX..XXXXXXXX..  ........  ....XXXX..",
"XXXX......  ..    ........XXXX..XXXXXXXX..  ........  ....XXXX..",
"..XXXX....        XXXX......XXXXXXXX....    ..XXXX....XXXXXX....",
"..XXXX....        XXXX......XXXXXXXX....    ..XXXX....XXXXXX....",
"..XXXX..XXXX....XXXX....    ..XX..XX....    ..XX    ..XXXX..    ",
"..XXXX..XXXX....XXXX....    ..XX..XX....    ..XX    ..XXXX..    ",
"........XXXX    XXXX....    ..........    ........  ....XX..  ..",
"........XXXX    XXXX....    ..........    ........  ....XX..  .."
};
