/* XPM */
static char *_____________[] = {
/* columns rows colors chars-per-pixel */
"64 64 3 1",
"  c #4D3F37",
". c #705C4E",
"X c #A49278",
/* pixels */
"..........  ..XX........    ........    XXXX................  ..",
"..........  ..XX........    ........    XXXX................  ..",
"XXXX......  XXXX........  XX..    ......      ......      ..    ",
"XXXX......  XXXX........  XX..    ......      ......      ..    ",
"  XX......    ..    ..  ..XXXX..  ....    ..  ....    ........  ",
"  XX......    ..    ..  ..XXXX..  ....    ..  ....    ........  ",
"        ....      ....    XXXX........  ............XXXX....    ",
"        ....      ....    XXXX........  ............XXXX....    ",
"....      ..    ........  ..  ....    XXXX........      ..  ..  ",
"....      ..    ........  ..  ....    XXXX........      ..  ..  ",
"......    ........XXXX....  ........  XXXXXX......  ....    ....",
"......    ........XXXX....  ........  XXXXXX......  ....    ....",
"..................XXXX....  XX......      ....    XXXX..........",
"..................XXXX....  XX......      ....    XXXX..........",
"  ..    XXXX....  ....    ..    ......  ........  XXXX......    ",
"  ..    XXXX....  ....    ..    ......  ........  XXXX......    ",
"....    ....  ..    ..  ......  ..  ............      ..    ....",
"....    ....  ..    ..  ......  ..  ............      ..    ....",
"....  XXXX..  ....  ..  XX..........    XXXX......  ....  ..XX..",
"....  XXXX..  ....  ..  XX..........    XXXX......  ....  ..XX..",
"..  ..XXXX..........    XXXX....  ..    XXXX....  ..XX..    XXXX",
"..  ..XXXX..........    XXXX....  ..    XXXX....  ..XX..    XXXX",
"........  ....XXXX......  ..  ..  ....  ..  ..      XXXX........",
"........  ....XXXX......  ..  ..  ....  ..  ..      XXXX........",
"      ......  XXXX..    ......  XXXX..      ......    ....  XX..",
"      ......  XXXX..    ......  XXXX..      ......    ....  XX..",
"....    ....    ..  ..  ........XXXX..  XX..........    ..    ..",
"....    ....    ..  ..  ........XXXX..  XX..........    ..    ..",
"....      ....    ......XXXX....  ..      ....XXXX............  ",
"....      ....    ......XXXX....  ..      ....XXXX............  ",
"......  ................XXXX..  ............  XXXX....  XX....  ",
"......  ................XXXX..  ............  XXXX....  XX....  ",
"XXXX........  ....    ..XX..    ..    XX....      ....    XX....",
"XXXX........  ....    ..XX..    ..    XX....      ....    XX....",
"XX......XXXX..  ..  ....      ......  ......    ........  XX..  ",
"XX......XXXX..  ..  ....      ......  ......    ........  XX..  ",
"    ..  XXXX..  ........    XXXX........          ..      ..    ",
"    ..  XXXX..  ........    XXXX........          ..      ..    ",
"  ....        ....  ......    XX....  ..XXXX....  XX....      ..",
"  ....        ....  ......    XX....  ..XXXX....  XX....      ..",
"........    ....XXXX  ....    ....  ..  XXXX....  ....    ......",
"........    ....XXXX  ....    ....  ..  XXXX....  ....    ......",
"..............    XX  ..........    ..      ........    ..XX....",
"..............    XX  ..........    ..      ........    ..XX....",
"XXXX..  XXXX....    ....    ..  ......................  XXXX..  ",
"XXXX..  XXXX....    ....    ..  ......................  XXXX..  ",
"  XX..    XX....    ......      XXXX....      ..  ......        ",
"  XX..    XX....    ......      XXXX....      ..  ......        ",
"    ..    ....  ......  ....      XX......  ....    ........  ..",
"    ..    ....  ......  ....      XX......  ....    ........  ..",
"............    ......  XX............  ........    XX....      ",
"............    ......  XX............  ........    XX....      ",
"................XX....    XX....  ....    XXXX......      ......",
"................XX....    XX....  ....    XXXX......      ......",
"..  XXXX....    XX..      XX..  ........  XXXX..  ........  XX..",
"..  XXXX....    XX..      XX..  ........  XXXX..  ........  XX..",
"..  XXXX..        ..  ..  ..  ..XXXX....    ..    XXXX....    ..",
"..  XXXX..        ..  ..  ..  ..XXXX....    ..    XXXX....    ..",
"      ..    ........  XX....      XX  ....        XXXX....      ",
"      ..    ........  XX....      XX  ....        XXXX....      ",
"  ....................XX....  ..      ........        ..  ......",
"  ....................XX....  ..      ........        ..  ......",
"......    XX..  ..  ....  ............  XXXX..  ........  XX....",
"......    XX..  ..  ....  ............  XXXX..  ........  XX...."
};
