/* XPM */
static char *_____________[] = {
/* columns rows colors chars-per-pixel */
"64 64 10 1",
"  c #342A27",
". c #3C352B",
"X c #454823",
"o c #555E2C",
"O c #55493C",
"+ c #6D783C",
"@ c #6B624B",
"# c #83725B",
"$ c #8A7F67",
"% c #9D927C",
/* pixels */
"oooo++++%%%%$$$$$$$$@@@@##$$@@@@@@..  OO##$$%%%%%%%%++++ooooXXXX",
"oooo++++%%%%$$$$$$$$@@@@##$$@@@@@@..  OO##$$%%%%%%%%++++ooooXXXX",
"oo++$$++++@@@@@@@@@@@@@@@@@@@@@@OO..XX  @@@@$$$$$$@@@@@@++ooooXX",
"oo++$$++++@@@@@@@@@@@@@@@@@@@@@@OO..XX  @@@@$$$$$$@@@@@@++ooooXX",
"oo$$@@@@@@@@@@@@@@@@@@@@@@@@@@@@@@++XXXX@@@@@@@@@@@@@@@@@@++  XX",
"oo$$@@@@@@@@@@@@@@@@@@@@@@@@@@@@@@++XXXX@@@@@@@@@@@@@@@@@@++  XX",
"%%$$@@@@@@++@@@@@@@@@@@@OO@@@@@@++++ooXXoo@@@@@@@@@@@@@@@@++    ",
"%%$$@@@@@@++@@@@@@@@@@@@OO@@@@@@++++ooXXoo@@@@@@@@@@@@@@@@++    ",
"$$@@@@@@++++OO@@@@++++@@....OO@@ooXX    XX@@@@++@@@@@@@@@@++ooXX",
"$$@@@@@@++++OO@@@@++++@@....OO@@ooXX    XX@@@@++@@@@@@@@@@++ooXX",
"@@@@@@@@@@++++OO@@@@@@++OO..OOooXXXX..XX@@@@++++@@@@@@@@++++XXXX",
"@@@@@@@@@@++++OO@@@@@@++OO..OOooXXXX..XX@@@@++++@@@@@@@@++++XXXX",
"++@@@@++++OO++++$$OO@@OOooOOooXX    ..ooXX@@oooo@@++XXXXOOOOXX  ",
"++@@@@++++OO++++$$OO@@OOooOOooXX    ..ooXX@@oooo@@++XXXXOOOOXX  ",
"XXXX++++OOOO++++OOOOOOOOooooXXXX  XXXXXXooooooXX++ooooXXOO..    ",
"XXXX++++OOOO++++OOOOOOOOooooXXXX  XXXXXXooooooXX++ooooXXOO..    ",
"  XXXX++@@++ooXXoooo......  XXXXXX  XX  XXXX    oooo++++XXXX....",
"  XXXX++@@++ooXXoooo......  XXXXXX  XX  XXXX    oooo++++XXXX....",
"    XXXXooooXX..oo  ..OOOOOOOOOOOOOO      XXXX  OOoooo++ooXX..OO",
"    XXXXooooXX..oo  ..OOOOOOOOOOOOOO      XXXX  OOoooo++ooXX..OO",
"$$##++++OOooXX..  XX@@####%%%%%%####++++ooooXX..OOOO####@@++####",
"$$##++++OOooXX..  XX@@####%%%%%%####++++ooooXX..OOOO####@@++####",
"##@@++@@@@OOooXXXXXX@@@@##########@@++@@ooooOO..OO@@@@@@++oo##@@",
"##@@++@@@@OOooXXXXXX@@@@##########@@++@@ooooOO..OO@@@@@@++oo##@@",
"@@@@@@@@@@OO    XX++OO@@@@@@@@@@@@@@@@@@XX  OO@@##@@@@++oo@@@@@@",
"@@@@@@@@@@OO    XX++OO@@@@@@@@@@@@@@@@@@XX  OO@@##@@@@++oo@@@@@@",
"@@@@@@@@@@@@  XXXXooOOOO@@@@@@@@@@@@@@OO      OO##@@++@@@@@@@@@@",
"@@@@@@@@@@@@  XXXXooOOOO@@@@@@@@@@@@@@OO      OO##@@++@@@@@@@@@@",
"@@@@OOOO@@ooXXXXoooo++++@@@@@@@@@@OO@@++..OO  OO##@@@@@@@@@@@@@@",
"@@@@OOOO@@ooXXXXoooo++++@@@@@@@@@@OO@@++..OO  OO##@@@@@@@@@@@@@@",
"@@@@@@OO++++XXXXXXOOoo++++++@@@@OOOOOO++....XXOO##@@@@@@@@@@@@oo",
"@@@@@@OO++++XXXXXXOOoo++++++@@@@OOOOOO++....XXOO##@@@@@@@@@@@@oo",
"@@@@++++OO@@  XXooOO@@OOoo++@@OOoo++++ooXXooOO..OO@@@@@@@@@@ooXX",
"@@@@++++OO@@  XXooOO@@OOoo++@@OOoo++++ooXXooOO..OO@@@@@@@@@@ooXX",
"++++oo@@@@OO  XXXXoo@@@@OOooOO++ooooooooXXXX....OO@@@@@@####XXXX",
"++++oo@@@@OO  XXXXoo@@@@OOooOO++ooooooooXXXX....OO@@@@@@####XXXX",
"OOXXooooooXXXX  XXXX  XXoooo++ooXXXX....  XXXXoo++ooooOOXXXXXX  ",
"OOXXooooooXXXX  XXXX  XXoooo++ooXXXX....  XXXXoo++ooooOOXXXXXX  ",
"OOOOOOooXXXX....  XX    XXXXXXooXX  ..OO    XXXX++++ooooooXX....",
"OOOOOOooXXXX....  XX    XXXXXXooXX  ..OO    XXXX++++ooooooXX....",
"@@@@%%%%######$$##XXXXXX..  XXXX  OO@@@@##%%####%%%%##@@++ooXX  ",
"@@@@%%%%######$$##XXXXXX..  XXXX  OO@@@@##%%####%%%%##@@++ooXX  ",
"@@$$##$$@@@@####@@@@XX  ..  XX  OO@@##@@@@@@@@####@@@@@@@@oo    ",
"@@$$##$$@@@@####@@@@XX  ..  XX  OO@@##@@@@@@@@####@@@@@@@@oo    ",
"%%##@@@@@@++@@@@@@@@@@@@  XXXXoo@@##@@@@@@@@@@@@@@++@@@@@@++OOOO",
"%%##@@@@@@++@@@@@@@@@@@@  XXXXoo@@##@@@@@@@@@@@@@@++@@@@@@++OOOO",
"oo@@@@@@++@@++@@@@@@@@@@  XXoooo##@@@@@@@@@@@@@@@@++@@@@++++@@XX",
"oo@@@@@@++@@++@@@@@@@@@@  XXoooo##@@@@@@@@@@@@@@@@++@@@@++++@@XX",
"oo@@@@++++@@@@@@OO@@@@@@XXXX..OO%%##@@@@@@@@@@++@@@@@@@@++++  XX",
"oo@@@@++++@@@@@@OO@@@@@@XXXX..OO%%##@@@@@@@@@@++@@@@@@@@++++  XX",
"oo@@++@@@@@@@@++OO@@@@@@XXXXooOO%%@@@@@@@@@@@@@@@@@@@@@@++++XXXX",
"oo@@++@@@@@@@@++OO@@@@@@XXXXooOO%%@@@@@@@@@@@@@@@@@@@@@@++++XXXX",
"oooo++@@@@@@@@@@++OO@@@@  XXXXOO##@@++@@@@@@@@@@@@@@@@@@ooXXXX  ",
"oooo++@@@@@@@@@@++OO@@@@  XXXXOO##@@++@@@@@@@@@@@@@@@@@@ooXXXX  ",
"XXoo++@@@@OO##@@@@@@@@@@    OOOO##@@OO++OO@@@@@@@@@@@@ooooooXXXX",
"XXoo++@@@@OO##@@@@@@@@@@    OOOO##@@OO++OO@@@@@@@@@@@@ooooooXXXX",
"XXoo@@OOOOXXoo@@XXXXOOOOXXXX..OOOO@@@@@@@@OOOO@@@@@@++ooXXoooooo",
"XXoo@@OOOOXXoo@@XXXXOOOOXXXX..OOOO@@@@@@@@OOOO@@@@@@++ooXXoooooo",
"XXXXOOOOooXXooooXXXXOOOOXXXX....OOXXoo@@@@@@XXXXoooo++++XXXXoooo",
"XXXXOOOOooXXooooXXXXOOOOXXXX....OOXXoo@@@@@@XXXXoooo++++XXXXoooo",
"XXooooXXXX    ......XXXX  XXXXXXoo@@++++ooXXXX  ....OO..  XXXX  ",
"XXooooXXXX    ......XXXX  XXXXXXoo@@++++ooXXXX  ....OO..  XXXX  ",
"ooooXXXX    ..OOOOOOXXXX      XXooooooXXXXXX    ..OOOOOO        ",
"ooooXXXX    ..OOOOOOXXXX      XXooooooXXXXXX    ..OOOOOO        "
};
