/* XPM */
static char *_____________[] = {
/* columns rows colors chars-per-pixel */
"64 64 6 1",
"  c #332A27",
". c #542842",
"X c #66584C",
"o c #A49278",
"O c #595098",
"+ c #8297CC",
/* pixels */
"XXXX            XXXXXXXXXXXXXXXXXXooXXXX  XXXXXXXXXXXXXXXXooooXX",
"XXXX            XXXXXXXXXXXXXXXXXXooXXXX  XXXXXXXXXXXXXXXXooooXX",
"      XXooXXXX    XX      ooXX            XXXXXXXXoo      XXXXXX",
"      XXooXXXX    XX      ooXX            XXXXXXXXoo      XXXXXX",
"  XXXXXXXXXXXXXX                ooooooXX    ooXXXX    ooooXXXX  ",
"  XXXXXXXXXXXXXX                ooooooXX    ooXXXX    ooooXXXX  ",
"XXXXXXXXXXXXXXXX    XXooooooXXooXXXXXXXXXX    XX  ooXXXXXXXXXXXX",
"XXXXXXXXXXXXXXXX    XXooooooXXooXXXXXXXXXX    XX  ooXXXXXXXXXXXX",
"XXXXXXXXXXXXXXoo  XXXXXXXXXXXXXXXXXXXXXXXXooXX    ooXXXXXX  ooXX",
"XXXXXXXXXXXXXXoo  XXXXXXXXXXXXXXXXXXXXXXXXooXX    ooXXXXXX  ooXX",
"XXXXXXXXXXXXXXXX  XX  XXXXXXXXXXXXXXXXXXXXXXXXXX  ooXXXXXXooXXXX",
"XXXXXXXXXXXXXXXX  XX  XXXXXXXXXXXXXXXXXXXXXXXXXX  ooXXXXXXooXXXX",
"XXXXXXXXXXXXXXXXXXXX  ooXXXXXXXXXX  ooXXXXXXXX  XXXXXXXXXXXXXXXX",
"XXXXXXXXXXXXXXXXXXXX  ooXXXXXXXXXX  ooXXXXXXXX  XXXXXXXXXXXXXXXX",
"XXXXooooXXXXXXXXXX        ooXXXXXXXXXXXXXX      XXXXXXXXXXXXXXXX",
"XXXXooooXXXXXXXXXX        ooXXXXXXXXXXXXXX      XXXXXXXXXXXXXXXX",
"          XX  XX  OO..      XXXXXXXXXXXX    OO..  ooXXXXXXXXXX  ",
"          XX  XX  OO..      XXXXXXXXXXXX    OO..  ooXXXXXXXXXX  ",
"    oooo        OO++OO..      XXXXXXXXXX  OO++OO..  XXXXXXXXXXoo",
"    oooo        OO++OO..      XXXXXXXXXX  OO++OO..  XXXXXXXXXXoo",
"ooXXXXXX      OO++++OOOO..    ooXXXXXX  OO++++OOOO..  ooXX  ooXX",
"ooXXXXXX      OO++++OOOO..    ooXXXXXX  OO++++OOOO..  ooXX  ooXX",
"XXXXXXXX    OO++++++OOOOOO..  ooXXXXXX  OOOOOO......  XX    XXXX",
"XXXXXXXX    OO++++++OOOOOO..  ooXXXXXX  OOOOOO......  XX    XXXX",
"XX  XXXX  OO++++++++OOOOOOOO..    ooXX    OOOO....  ooXX  ooXXXX",
"XX  XXXX  OO++++++++OOOOOOOO..    ooXX    OOOO....  ooXX  ooXXXX",
"XXooXX  OO++++++++++++OOOOOOOO..            OO..    XX    ooXXXX",
"XXooXX  OO++++++++++++OOOOOOOO..            OO..    XX    ooXXXX",
"XXXXXX  OOOOOOOOOO++OO..........    ooXXooXX        XX    XXXXXX",
"XXXXXX  OOOOOOOOOO++OO..........    ooXXooXX        XX    XXXXXX",
"XXXXXXoo  OOOOOOOOOO..........      XXXXXXXXXX    ooXX  XXXXXXXX",
"XXXXXXoo  OOOOOOOOOO..........      XXXXXXXXXX    ooXX  XXXXXXXX",
"XX    XX    OOOOOOOO........  ooooXX  XXXXXXXX  ooXXXX      ooXX",
"XX    XX    OOOOOOOO........  ooooXX  XXXXXXXX  ooXXXX      ooXX",
"      XX      OOOOOO......    ooXXXX        oo  XXXXXX          ",
"      XX      OOOOOO......    ooXXXX        oo  XXXXXX          ",
"XX    XX  ooXX  OOOO....      XXXXXX    OO..  XXXXXXXXXXXX    oo",
"XX    XX  ooXX  OOOO....      XXXXXX    OO..  XXXXXXXXXXXX    oo",
"XXXX    XXXXXX    OO..      XXXXXXXX  OO++OO..  ooXXXXXX  ooooXX",
"XXXX    XXXXXX    OO..      XXXXXXXX  OO++OO..  ooXXXXXX  ooooXX",
"XXXXXX  XXXXXXooXX          ooXX    OO++++OOOO..  XXXXXX  XXXXXX",
"XXXXXX  XXXXXXooXX          ooXX    OO++++OOOO..  XXXXXX  XXXXXX",
"XXXXXX  XXXXXXXXXX    ooXXooXXXX  OO++++++OOOOOO..  XXXXooXXXXXX",
"XXXXXX  XXXXXXXXXX    ooXXooXXXX  OO++++++OOOOOO..  XXXXooXXXXXX",
"XX      XXXXXXXXXX  ooXXXXXXXX    OOOOOOOOOO......  ooXXXXXXXXXX",
"XX      XXXXXXXXXX  ooXXXXXXXX    OOOOOOOOOO......  ooXXXXXXXXXX",
"XX        XXXXXXXX  XXXXXXXXXX      OOOOOO......  ooXXXXXXXXXXXX",
"XX        XXXXXXXX  XXXXXXXXXX      OOOOOO......  ooXXXXXXXXXXXX",
"            XXXXXXXXXXXXXXXXXXoo      OOOO....    ooXXXX  XXXXXX",
"            XXXXXXXXXXXXXXXXXXoo      OOOO....    ooXXXX  XXXXXX",
"  ooooXX    XXXXXXXX  XXXXXXXXXXXX      OO..      XXXX        XX",
"  ooooXX    XXXXXXXX  XXXXXXXXXXXX      OO..      XXXX        XX",
"ooXXXXXXXX    XXXX    ooXXXXXXXXXXXXooXX        XX    ooooXX    ",
"ooXXXXXXXX    XXXX    ooXXXXXXXXXXXXooXX        XX    ooooXX    ",
"XXXXXXXX            XXXXXXXX      XXXXXX    ooXXooooXXXXXXXXooXX",
"XXXXXXXX            XXXXXXXX      XXXXXX    ooXXooooXXXXXXXXooXX",
"XXXXXXXX    XXXXooooXXXXXXXXooXXXX          ooXXXXXXXXXXXXXXXXXX",
"XXXXXXXX    XXXXooooXXXXXXXXooXXXX          ooXXXXXXXXXXXXXXXXXX",
"XXXXXXXXXXooXXXXXXXXXXXX  XXXXXXXXXXoo    XXXXXXXXXXXXXXXXXXXXXX",
"XXXXXXXXXXooXXXXXXXXXXXX  XXXXXXXXXXoo    XXXXXXXXXXXXXXXXXXXXXX",
"XXXXXXooXX  XXXXXXXXXXXXooXXXXXXXXXXXXXX  ooXXXXXXXXXXXXXXXXXXXX",
"XXXXXXooXX  XXXXXXXXXXXXooXXXXXXXXXXXXXX  ooXXXXXXXXXXXXXXXXXXXX",
"XX            XXXXXXXXXXXXXXXXXXXXXXXX    ooXXXXXXXXXXXXXXXXXXXX",
"XX            XXXXXXXXXXXXXXXXXXXXXXXX    ooXXXXXXXXXXXXXXXXXXXX"
};
