/* XPM */
static char *_____________[] = {
/* columns rows colors chars-per-pixel */
"64 64 3 1",
"  c #976747",
". c #B38859",
"X c #CCAB72",
/* pixels */
"......  ............      ........  ..XXXX................    ..",
"......  ............      ........  ..XXXX................    ..",
"....    ........        ........  ....XX....  ..........    ....",
"....    ........        ........  ....XX....  ..........    ....",
"..    XXXX....    ..........      ..XX....    ........    ......",
"..    XXXX....    ..........      ..XX....    ........    ......",
"    XXXX....      ........      ..........  ..XXXX..    ........",
"    XXXX....      ........      ..........  ..XXXX..    ........",
"..XXXX....      ......      ..........      ..XX..    ....XX....",
"..XXXX....      ......      ..........      ..XX..    ....XX....",
"..XX....        ......    ......XX....    ........    ..XX......",
"..XX....        ......    ......XX....    ........    ..XX......",
"......        ..XX..    ......XX....    ........    ..XX......  ",
"......        ..XX..    ......XX....    ........    ..XX......  ",
"....      ..........    ......XX..    ..........    XXXX....    ",
"....      ..........    ......XX..    ..........    XXXX....    ",
"....................  ......XX....    ..XX....    ........    ..",
"....................  ......XX....    ..XX....    ........    ..",
"....  ......XXXX....  ....XX....  ....XXXX....    ........  ....",
"....  ......XXXX....  ....XX....  ....XXXX....    ........  ....",
"..    ....XXXX..........XX....    ..........    ........    ....",
"..    ....XXXX..........XX....    ..........    ........    ....",
"..    ....XX..........XXXX..        ........  ....XX..    ......",
"..    ....XX..........XXXX..        ........  ....XX..    ......",
"    ....XX......    ......        ..............XXXX..    ......",
"    ....XX......    ......        ..............XXXX..    ......",
"  ..........      ......          ........    ......      ....  ",
"  ..........      ......          ........    ......      ....  ",
"........        ......        ..XX....      ........    ..XX..  ",
"........        ......        ..XX....      ........    ..XX..  ",
"......      ..........      ..XXXX..      ........      ..XX..  ",
"......      ..........      ..XXXX..      ........      ..XX..  ",
"....        ............    XXXX..        ..XX......  ..XX......",
"....        ............    XXXX..        ..XX......  ..XX......",
"....    ............      ..XX....    ....XX......    ..XX......",
"....    ............      ..XX....    ....XX......    ..XX......",
"..........XX....      XX..........  ..XXXX......    ..XX......  ",
"..........XX....      XX..........  ..XXXX......    ..XX......  ",
"......................XX....      ..XXXX......    ........    ..",
"......................XX....      ..XXXX......    ........    ..",
"....XX....    ............      ..XXXX....      ..........  ....",
"....XX....    ............      ..XXXX....      ..........  ....",
"....XX..      ..........      ....XX....    ............    ....",
"....XX..      ..........      ....XX....    ............    ....",
"....      ....XX........  ..........      ........XX..      ....",
"....      ....XX........  ..........      ........XX..      ....",
"..      ....XXXX....    ....XX....      ....XX....XX        ....",
"..      ....XXXX....    ....XX....      ....XX....XX        ....",
"      ..XXXX......      ..XX....    ......XX........      ......",
"      ..XXXX......      ..XX....    ......XX........      ......",
"  ......XX......      ........    ......XXXX....          ......",
"  ......XX......      ........    ......XXXX....          ......",
"......XX......      ........    ......XXXX......        ..XX....",
"......XX......      ........    ......XXXX......        ..XX....",
"....XX......      ....XX....  ................        ..XXXX....",
"....XX......      ....XX....  ................        ..XXXX....",
"....XX....        ..XXXX......    ..........      ..XX..........",
"....XX....        ..XXXX......    ..........      ..XX..........",
"..........        ..XX......      ........      ....XX........  ",
"..........        ..XX......      ........      ....XX........  ",
"........        ..........    ............  ......XX........    ",
"........        ..........    ............  ......XX........    ",
"..........  ............    ......................XX......    ..",
"..........  ............    ......................XX......    .."
};
