/* XPM */
static char *_____________[] = {
/* columns rows colors chars-per-pixel */
"64 64 5 1",
"  c #4E4634",
". c #766345",
"X c #8A764E",
"o c #A38953",
"O c #B19A68",
/* pixels */
"ooooooooooXXXX..XXOOOOOOooooOOOOooooooooooXXXX  ooooOOOOooooOOOO",
"ooooooooooXXXX..XXOOOOOOooooOOOOooooooooooXXXX  ooooOOOOooooOOOO",
"XXXXXXXXXXXXXX..ooXXXXXXXXXXXXXXXXXXXXXXXXXXXX  ooXXXXXXXXooooXX",
"XXXXXXXXXXXXXX..ooXXXXXXXXXXXXXXXXXXXXXXXXXXXX  ooXXXXXXXXooooXX",
"XXXXXXXXXXXXXX..ooXXXXXXXXXXXXXXXXXXXXXXXXXXXX..OOXXXXXXXXXXXXXX",
"XXXXXXXXXXXXXX..ooXXXXXXXXXXXXXXXXXXXXXXXXXXXX..OOXXXXXXXXXXXXXX",
"XXXXXXXXXX..XX..ooXXXXXXXXXXXXXXXXXXXXXXXXXX....OOXXXXXXXXXXXXXX",
"XXXXXXXXXX..XX..ooXXXXXXXXXXXXXXXXXXXXXXXXXX....OOXXXXXXXXXXXXXX",
"XXXXXXXX..XXXX  ooXXXXXXXXXXXXXXXXXXXXXXXXXX..  ooXXXXXXXXXXXXXX",
"XXXXXXXX..XXXX  ooXXXXXXXXXXXXXXXXXXXXXXXXXX..  ooXXXXXXXXXXXXXX",
"XXXXXX....XXXX  XXXXXXXXXXXXXXXXooooXXXXXXXX..  XXXX..XX....XXXX",
"XXXXXX....XXXX  XXXXXXXXXXXXXXXXooooXXXXXXXX..  XXXX..XX....XXXX",
"..XX..  XX..XX  XXXX....XXXXXX....    ........  XX..  ....XXXXXX",
"..XX..  XX..XX  XXXX....XXXXXX....    ........  XX..  ....XXXXXX",
"                                ........            ....        ",
"                                ........            ....        ",
"..              ....    ....XX..ooOOOOOOOOOOooooooooooooooXXXX  ",
"..              ....    ....XX..ooOOOOOOOOOOooooooooooooooXXXX  ",
"....................  ....  XX..OOoooo....XXXXXXXXXXXXXXXXXXXX  ",
"....................  ....  XX..OOoooo....XXXXXXXXXXXXXXXXXXXX  ",
"..XXXXXXXXXXXXXXXXXX..XX....XX..OOXXXXXXXXXXXXXXXXXXXXXXXXXXXX..",
"..XXXXXXXXXXXXXXXXXX..XX....XX..OOXXXXXXXXXXXXXXXXXXXXXXXXXXXX..",
"..XXXXXXXXXXXXXXXXXXXX..oo..XX..OOXXXXXXXXXXXXXXXXXXXXXXXXXXXX..",
"..XXXXXXXXXXXXXXXXXXXX..oo..XX..OOXXXXXXXXXXXXXXXXXXXXXXXXXXXX..",
"..XXXXXXXXXXXXXXXXXXXXXXXX..oo  ooXXXXXXXXXXXXXXXXXXXXXXXXXXXX  ",
"..XXXXXXXXXXXXXXXXXXXXXXXX..oo  ooXXXXXXXXXXXXXXXXXXXXXXXXXXXX  ",
"..XXXXXXXXXXXXXXXXXXXXXXXX..oo  ooXXXXXXXXXXXXXXXXXXXXXXXXXXXX  ",
"..XXXXXXXXXXXXXXXXXXXXXXXX..oo  ooXXXXXXXXXXXXXXXXXXXXXXXXXXXX  ",
"ooooOOOOOOOOooooooooOOOOOOOOXX  ..XXXXXXXXXX............        ",
"ooooOOOOOOOOooooooooOOOOOOOOXX  ..XXXXXXXXXX............        ",
"........            ........    ........            ........    ",
"........            ........    ........            ........    ",
"ooooooooooXXXX  ....OOOOooooXXXXOOOOooooooXXXX  ooooOOOOOOOOOOOO",
"ooooooooooXXXX  ....OOOOooooXXXXOOOOooooooXXXX  ooooOOOOOOOOOOOO",
"XXXXXXXXXXXXXX  ..XXXXXXXXXXXXXXXXXXXXXXXXXXXX  ooXXXXXXXXXXXXXX",
"XXXXXXXXXXXXXX  ..XXXXXXXXXXXXXXXXXXXXXXXXXXXX  ooXXXXXXXXXXXXXX",
"XXXXXXXXXXXXXX..ooXXXXXXXXXXXXXXXXXXXXXXXXXX....ooXXXXXXXXXXXXXX",
"XXXXXXXXXXXXXX..ooXXXXXXXXXXXXXXXXXXXXXXXXXX....ooXXXXXXXXXXXXXX",
"XXXXXXXXXXXXXX..ooXXXXXXXXXXXXXXXXXXXXXXXXXX....ooXXXXXXXXXXXXXX",
"XXXXXXXXXXXXXX..ooXXXXXXXXXXXXXXXXXXXXXXXXXX....ooXXXXXXXXXXXXXX",
"..XXXXXXXXXXXX  ooXXXXXXXXXXXX..XXXXXXXXXXXX..  ooXXXXXXXXXXXXXX",
"..XXXXXXXXXXXX  ooXXXXXXXXXXXX..XXXXXXXXXXXX..  ooXXXXXXXXXXXXXX",
"....XXXXXXXXXX  XXXXXXXXXXXXXX....XXXXXXXXXX..  XXXXXXXXXXXXXXXX",
"....XXXXXXXXXX  XXXXXXXXXXXXXX....XXXXXXXXXX..  XXXXXXXXXXXXXXXX",
"    ....XX..XX  XXXXXXXX............XXXXXX....  XXXX....XX......",
"    ....XX..XX  XXXXXXXX............XXXXXX....  XXXX....XX......",
"    ........        ........                                    ",
"    ........        ........                                    ",
"OOOOOOOOOOOOooooOOOOoooooooo....    ....        ....      ..XX..",
"OOOOOOOOOOOOooooOOOOoooooooo....    ....        ....      ..XX..",
"OOXXXXXXXXXXXXXXXXXXXXXXXXXXXX..  ........................  XX..",
"OOXXXXXXXXXXXXXXXXXXXXXXXXXXXX..  ........................  XX..",
"ooXXXXXXXXXXXXXXXXXXXXXXXXXXXX..  XXXXXXXXXXXXXXXXXX........XX..",
"ooXXXXXXXXXXXXXXXXXXXXXXXXXXXX..  XXXXXXXXXXXXXXXXXX........XX..",
"ooXXXXXXXXXXXXXXXXXXXXXXXX..XX....XXXXXXXXXXXXXXXXXXXXXXXX..XX..",
"ooXXXXXXXXXXXXXXXXXXXXXXXX..XX....XXXXXXXXXXXXXXXXXXXXXXXX..XX..",
"ooXXXXXXXXXXXXXXXXXXXXXXXX....  ..XXXXXXXXXXXXXXXXXXXXXXXX..oo  ",
"ooXXXXXXXXXXXXXXXXXXXXXXXX....  ..XXXXXXXXXXXXXXXXXXXXXXXX..oo  ",
"XXXXXXXXXXXXXXXXXXXXXXXXXXoo..  ..XXXXXXXXXXXXXXXXXXXXXXXX..oo  ",
"XXXXXXXXXXXXXXXXXXXXXXXXXXoo..  ..XXXXXXXXXXXXXXXXXXXXXXXX..oo  ",
"XXXXXX....XXXXXX........oooo..  XXOOOOOOOOOOooooooooOOOOOOOOXX  ",
"XXXXXX....XXXXXX........oooo..  XXOOOOOOOOOOooooooooOOOOOOOOXX  ",
"    ........        ........        ............    ....        ",
"    ........        ........        ............    ....        "
};
