/* XPM */
static char *_____________[] = {
/* columns rows colors chars-per-pixel */
"64 64 5 1",
"  c #4E4634",
". c #766345",
"X c #8A764E",
"o c #A38953",
"O c #B19A68",
/* pixels */
"........ooooOOOOOOOOoooooooooo  XXXXOOOOooooOOOOOOOOOOOOoooooo  ",
"........ooooOOOOOOOOoooooooooo  XXXXOOOOooooOOOOOOOOOOOOoooooo  ",
"..XXXXXXXXXXooXXooooXXXXXXXXXX  XXXXXXXXXXXXooooXXXXXXXXXXXXXX  ",
"..XXXXXXXXXXooXXooooXXXXXXXXXX  XXXXXXXXXXXXooooXXXXXXXXXXXXXX  ",
"..XXXXXXXXXXXXXXXXXXXXXXXXXX....ooXXXXXXXXXXooXXXXXXXXXXXXXXXX..",
"..XXXXXXXXXXXXXXXXXXXXXXXXXX....ooXXXXXXXXXXooXXXXXXXXXXXXXXXX..",
"..XXXXXXXXXXXXXXXXXXXXXX....XX..ooXXXXXXXXXXXXXXXXXXXXXXXXXX....",
"..XXXXXXXXXXXXXXXXXXXXXX....XX..ooXXXXXXXXXXXXXXXXXXXXXXXXXX....",
"XXXXXXXXXXXXXXXXXXXXXXXX  ..XXXXXXXXXXXXXXXXXXXXXXXXXXXXXXXXXX..",
"XXXXXXXXXXXXXXXXXXXXXXXX  ..XXXXXXXXXXXXXXXXXXXXXXXXXXXXXXXXXX..",
"XXXXXXXXXXXXXXXXXXXXXX  ooXXXXXXXXXXXXXXXX..ooXXXXXXXXXXXXXX....",
"XXXXXXXXXXXXXXXXXXXXXX  ooXXXXXXXXXXXXXXXX..ooXXXXXXXXXXXXXX....",
"ooXXXXXXXXXXXXXXXXXXXXooXXXXXX..ooXXXXXXXX..XXXXXXXXXXXXXX....  ",
"ooXXXXXXXXXXXXXXXXXXXXooXXXXXX..ooXXXXXXXX..XXXXXXXXXXXXXX....  ",
"ooXXXXXXXXXXXXXXXXXXXXXXXXXXXX..ooXXXXXXXXooXXXXXXXXXXXXXXXX..  ",
"ooXXXXXXXXXXXXXXXXXXXXXXXXXXXX..ooXXXXXXXXooXXXXXXXXXXXXXXXX..  ",
"XX..XXXXXXXXXXXXXXXXXXXXXXXXXX  ooXXXXXXXXXXXXXXXXXXXXXXXXXXoo..",
"XX..XXXXXXXXXXXXXXXXXXXXXXXXXX  ooXXXXXXXXXXXXXXXXXXXXXXXXXXoo..",
"XX..XXXXXXXXXXXXXXXXXXXXXXXXXX  ooXXXXXXXXXXXXXXXXXXXXXXXXXXoo..",
"XX..XXXXXXXXXXXXXXXXXXXXXXXXXX  ooXXXXXXXXXXXXXXXXXXXXXXXXXXoo..",
"XXooXXXXXXXXXXXXXXXXXXXXXXXX....ooXXXXXXXXXXXXXXXX..XXXXXXXXXXXX",
"XXooXXXXXXXXXXXXXXXXXXXXXXXX....ooXXXXXXXXXXXXXXXX..XXXXXXXXXXXX",
"XXooXXXXXXXXXXXXXXXXXXXXXX......XXXXXXXXXXXXXXXXXXXXXXXXXXXXXXXX",
"XXooXXXXXXXXXXXXXXXXXXXXXX......XXXXXXXXXXXXXXXXXXXXXXXXXXXXXXXX",
"ooXXXXXXXXXXXXXXXXXXXXXXXXXXXX  XXXXXXXXXXXXXXXXXXXXXX..ooXXXX..",
"ooXXXXXXXXXXXXXXXXXXXXXXXXXXXX  XXXXXXXXXXXXXXXXXXXXXX..ooXXXX..",
"ooXXXXXX......XXXXXXXXXXXXXX..  ooXXXXXXXXXXXXXXXXXXXXXX....XX..",
"ooXXXXXX......XXXXXXXXXXXXXX..  ooXXXXXXXXXXXXXXXXXXXXXX....XX..",
"ooXXXX..  ..    ....XXXXXXXXXX  ooXXXXXX........XXXXXXXXXX..  ..",
"ooXXXX..  ..    ....XXXXXXXXXX  ooXXXXXX........XXXXXXXXXX..  ..",
"            ....    ....                    ........            ",
"            ....    ....                    ........            ",
"XXXXOOOOooooOOOOOOOOoooooooo..  ....XXooooooooooOOOOOOOOoooooo  ",
"XXXXOOOOooooOOOOOOOOoooooooo..  ....XXooooooooooOOOOOOOOoooooo  ",
"XXXXXXXXXXXXXXXXooooXXXXXXXX..  XX..XXXXXXooXXXXXXXXXXXXXXXXoo  ",
"XXXXXXXXXXXXXXXXooooXXXXXXXX..  XX..XXXXXXooXXXXXXXXXXXXXXXXoo  ",
"ooXXXXXXXXXXXXXXXXXXXXXXXXXX..XXXXXX..XXXXXXXXXXXXXXXXXXXXXXoo..",
"ooXXXXXXXXXXXXXXXXXXXXXXXXXX..XXXXXX..XXXXXXXXXXXXXXXXXXXXXXoo..",
"ooXXXXXXXX..XXXXXXXXXXXXXXXX..XXooXXXXXXXXXXXXXXXXXXXXXXXXXXXX..",
"ooXXXXXXXX..XXXXXXXXXXXXXXXX..XXooXXXXXXXXXXXXXXXXXXXXXXXXXXXX..",
"ooXXXXXX..ooXXXXXXXXXXXXXXXXXX..ooXXXXXXXXXXXXXXXXXXXX....XXXX  ",
"ooXXXXXX..ooXXXXXXXXXXXXXXXXXX..ooXXXXXXXXXXXXXXXXXXXX....XXXX  ",
"ooXXXXXXooXXXXXXXXXXXXXXXXXXXX..ooXXXXXXXXXXXXXXXXXXXX..ooXXXX  ",
"ooXXXXXXooXXXXXXXXXXXXXXXXXXXX..ooXXXXXXXXXXXXXXXXXXXX..ooXXXX  ",
"OOXXXXXXXXXXXXXXXXXXXXXXXXXX....OOXXXXXXXXXXXXXXXXXXXXooXXXX..  ",
"OOXXXXXXXXXXXXXXXXXXXXXXXXXX....OOXXXXXXXXXXXXXXXXXXXXooXXXX..  ",
"OOXXXXXXXXXXXXXXXXXXXXXXXXXX....OOXXXXXXXXXXXXXXXXXXXXXXXXXXXX  ",
"OOXXXXXXXXXXXXXXXXXXXXXXXXXX....OOXXXXXXXXXXXXXXXXXXXXXXXXXXXX  ",
"ooXXXXXXXXXXXXXXXXXXXXXXXXXX..  ooXXXXXXXXXXXXXXXXXXXXXXXXXXXX..",
"ooXXXXXXXXXXXXXXXXXXXXXXXXXX..  ooXXXXXXXXXXXXXXXXXXXXXXXXXXXX..",
"ooXXXXXXXXXXXXXXXXXXXXXXXXXXXX  ooXXXXXXXXXXXXXXXXXXXXXXXXXX....",
"ooXXXXXXXXXXXXXXXXXXXXXXXXXXXX  ooXXXXXXXXXXXXXXXXXXXXXXXXXX....",
"XXXXXXXXXXXXXXXXXXXXXXXXXXXX..  XXXXXXXXXXXXXXXXXXXXXXXXXXXX....",
"XXXXXXXXXXXXXXXXXXXXXXXXXXXX..  XXXXXXXXXXXXXXXXXXXXXXXXXXXX....",
"XXXXXXXXXXXXXXXXXXXXXXXXXXXXXX  XXXXXXXXXXXXXXXXXXXXXXXXXXXX....",
"XXXXXXXXXXXXXXXXXXXXXXXXXXXXXX  XXXXXXXXXXXXXXXXXXXXXXXXXXXX....",
"ooXXXXXXXXXXXX..XXXXXXXXXXXXXX..ooXXXXXXXX..XXXXXXXXXXXXXX....  ",
"ooXXXXXXXXXXXX..XXXXXXXXXXXXXX..ooXXXXXXXX..XXXXXXXXXXXXXX....  ",
"ooXXXXXXXXXX....ooXX..XXXXXXXX..ooXXXXXX....XXXXXXXXXXXXXXXX..  ",
"ooXXXXXXXXXX....ooXX..XXXXXXXX..ooXXXXXX....XXXXXXXXXXXXXXXX..  ",
"ooXXXX......      ......XXXXXX  ooXXXXXXooooXXXXXXXX......      ",
"ooXXXX......      ......XXXXXX  ooXXXXXXooooXXXXXXXX......      ",
"        ........    ....                ....XXXX    ........    ",
"        ........    ....                ....XXXX    ........    "
};
