/* XPM */
static char *_____________[] = {
/* columns rows colors chars-per-pixel */
"64 64 3 1",
"  c #332A27",
". c #66584C",
"X c #A49278",
/* pixels */
"XXXXXXXXXXXXXXXXXXXXXXXXXXXXXXXX  XX..........................  ",
"XXXXXXXXXXXXXXXXXXXXXXXXXXXXXXXX  XX..........................  ",
"XX..............................  ................  XX........  ",
"XX..............................  ................  XX........  ",
"XX..............................  ....  ......................  ",
"XX..............................  ....  ......................  ",
"XX..............................                                ",
"XX..............................                                ",
"....................  ..........  XXXXXXXXXXXXXXXXXXXXXXXXXXXX  ",
"....................  ..........  XXXXXXXXXXXXXXXXXXXXXXXXXXXX  ",
"XX..................XX..........  XX..........................  ",
"XX..................XX..........  XX..........................  ",
"................................  XX..........................  ",
"................................  XX..........................  ",
"                                  XX..........................  ",
"                                  XX..........................  ",
"                              ..  XX..........................  ",
"                              ..  XX..........................  ",
"                  ..............  XX......  ..................  ",
"                  ..............  XX......  ..................  ",
"      ........................XX  XX......XX..................  ",
"      ........................XX  XX......XX..................  ",
"      ........................XX  XX..................  XX....  ",
"      ........................XX  XX..................  XX....  ",
"    ..........................XX  XX..........................  ",
"    ..........................XX  XX..........................  ",
"    ..........................XX  ............................  ",
"    ..........................XX  ............................  ",
"    ..........................XX  XX..........................  ",
"    ..........................XX  XX..........................  ",
"..XXXXXXXXXXXXXXXXXXXXXXXXXXXX..  ..............  ............  ",
"..XXXXXXXXXXXXXXXXXXXXXXXXXXXX..  ..............  ............  ",
"                                                                ",
"                                                                ",
"              ..  ..XXXXXXXXXXXXXXXXXXXX..XX..                  ",
"              ..  ..XXXXXXXXXXXXXXXXXXXX..XX..                  ",
"..............XX  XX..........................            ......",
"..............XX  XX..........................            ......",
"..............XX  ............................    ..............",
"..............XX  ............................    ..............",
"..............XX  XX..........................    ..............",
"..............XX  XX..........................    ..............",
"XXXXXXXXXXXXXX..  ......................  ....  ..XX..XXXXXXXXXX",
"XXXXXXXXXXXXXX..  ......................  ....  ..XX..XXXXXXXXXX",
"                                                                ",
"                                                                ",
"XXXXXXXXXXXXXXXXXXXXXXXXXXXX..XX                            ..  ",
"XXXXXXXXXXXXXXXXXXXXXXXXXXXX..XX                            ..  ",
"XX..............................          ..................XX  ",
"XX..............................          ..................XX  ",
"XX........................  ....    ........................XX  ",
"XX........................  ....    ........................XX  ",
"XX........................XX....    ........................XX  ",
"XX........................XX....    ........................XX  ",
"XX..............................  ..XX..XXXXXXXXXXXXXXXXXXXX..  ",
"XX..............................  ..XX..XXXXXXXXXXXXXXXXXXXX..  ",
"................................                                ",
"................................                                ",
"XX..............................  XXXXXXXXXXXXXXXXXXXXXXXXXXXX  ",
"XX..............................  XXXXXXXXXXXXXXXXXXXXXXXXXXXX  ",
"........  XX....................  XX..........................  ",
"........  XX....................  XX..........................  ",
"                                  XX..........................  ",
"                                  XX..........................  "
};
