/* XPM */
static char *_____________[] = {
/* columns rows colors chars-per-pixel */
"64 64 3 1",
"  c #4D3F37",
". c #66584C",
"X c #A49278",
/* pixels */
"  ..XXXXXXXX..XXXXXXXXXXXXXXXXXXXXXXXXXXXXXXXXXX..XXXX....XX..  ",
"  ..XXXXXXXX..XXXXXXXXXXXXXXXXXXXXXXXXXXXXXXXXXX..XXXX....XX..  ",
"..XX....................XXXXXX..............................XX..",
"..XX....................XXXXXX..............................XX..",
"XX............................................................  ",
"XX............................................................  ",
"XX................................  ..........................  ",
"XX................................  ..........................  ",
"XX................................XX............................",
"XX................................XX............................",
"XX..................................................    XX....  ",
"XX..................................................    XX....  ",
"XX............  XX....................................  ......  ",
"XX............  XX....................................  ......  ",
"XX..........      XX..................................XX......  ",
"XX..........      XX..................................XX......  ",
"XX..........  ................................................  ",
"XX..........  ................................................  ",
"XXXX........XX..............................................    ",
"XXXX........XX..............................................    ",
"XXXX........................................................    ",
"XXXX........................................................    ",
"XXXX......................................................      ",
"XXXX......................................................      ",
"XX........................................................      ",
"XX........................................................      ",
"XX........................................................      ",
"XX........................................................      ",
"XX......................................  XX..................  ",
"XX......................................  XX..................  ",
"XX............  ..............................................  ",
"XX............  ..............................................  ",
"XX............XX..............................................  ",
"XX............XX..............................................  ",
"XX............................................................  ",
"XX............................................................  ",
"XX......................    XX................................  ",
"XX......................    XX................................  ",
"..........................  ........................    XX....  ",
"..........................  ........................    XX....  ",
"XX....................................................XX......  ",
"XX....................................................XX......  ",
"XX............................................................  ",
"XX............................................................  ",
"XX............................................................  ",
"XX............................................................  ",
"XX............................................................  ",
"XX............................................................  ",
"XX........................  ................................    ",
"XX........................  ................................    ",
"XX........................XX..................................  ",
"XX........................XX..................................  ",
"XX......    ..........................    ..............  ....  ",
"XX......    ..........................    ..............  ....  ",
"..........XX..........................  XX..............XX....  ",
"..........XX..........................  XX..............XX....  ",
"XX............................................................  ",
"XX............................................................  ",
"..XX..........................................................  ",
"..XX..........................................................  ",
"  ..  ................        ..............................    ",
"  ..  ................        ..............................    ",
"        ..  ..                                                  ",
"        ..  ..                                                  "
};
