/* XPM */
static char *_____________[] = {
/* columns rows colors chars-per-pixel */
"64 64 5 1",
"  c #342A27",
". c #4E4634",
"X c #6B624B",
"o c #8A7F67",
"O c #9D927C",
/* pixels */
"OOOOooooOOOOooooooooXXXXooooXXXXXX  ....ooooOOOOOOOOoooo    XXXX",
"OOOOooooOOOOooooooooXXXXooooXXXXXX  ....ooooOOOOOOOOoooo    XXXX",
"ooooXXXXooXXXXXXXXXXXXXXXXXXXXXX..  ..XXXXXXooooooXXXXXX..  XXoo",
"ooooXXXXooXXXXXXXXXXXXXXXXXXXXXX..  ..XXXXXXooooooXXXXXX..  XXoo",
"XXXXXXXXXXXXXXXXXXXXXXXXXXXXXXXX....OOXXXXXXXXXXXXXXXXXX....OOXX",
"XXXXXXXXXXXXXXXXXXXXXXXXXXXXXXXX....OOXXXXXXXXXXXXXXXXXX....OOXX",
"XXXXXXXXXXXXXXXXXXXXXXXX..XXXXXX....OOXXXXXXXXXXXXXXXXXX....OOXX",
"XXXXXXXXXXXXXXXXXXXXXXXX..XXXXXX....OOXXXXXXXXXXXXXXXXXX....OOXX",
"XXXXXXXXXXXXXXXXXXXXXX..    ..XX..  ooXXXXXXXXXXXXXXXXXX....ooXX",
"XXXXXXXXXXXXXXXXXXXXXX..    ..XX..  ooXXXXXXXXXXXXXXXXXX....ooXX",
"XXXXXXXXXXXXXXXXXXXXXXXXXX  ......  ooXXXXXXXXXXXXXXXXXX....ooXX",
"XXXXXXXXXXXXXXXXXXXXXXXXXX  ......  ooXXXXXXXXXXXXXXXXXX....ooXX",
"XXXX..XXXXXXXXXXXX..XX  XX..    ..  XXXXXXXXXXXXXXXXXX....  ..XX",
"XXXX..XXXXXXXXXXXX..XX  XX..    ..  XXXXXXXXXXXXXXXXXX....  ..XX",
"XXoo....XXXXXXoo....          ....  XXXXXXXXXXXX..........  ..XX",
"XXoo....XXXXXXoo....          ....  XXXXXXXXXXXX..........  ..XX",
"........................    ......  ......................    ..",
"........................    ......  ......................    ..",
"........        ................    ....        ....            ",
"........        ................    ....        ....            ",
"ooooXXXX......  XXXXooooOOOOOOOOOOOOooooXXXX..  ....ooooXXXXoooo",
"ooooXXXX......  XXXXooooOOOOOOOOOOOOooooXXXX..  ....ooooXXXXoooo",
"ooXXXXXXXXXX..  XXooooXXooooooooooXXXXXXXXXX..  ..XXXXXXXXooooXX",
"ooXXXXXXXXXX..  XXooooXXooooooooooXXXXXXXXXX..  ..XXXXXXXXooooXX",
"XXXXXXXXXXXX....OOooXXXXXXXXXXXXXXXXXXXX........ooXXXXXXXXXXXXXX",
"XXXXXXXXXXXX....OOooXXXXXXXXXXXXXXXXXXXX........ooXXXXXXXXXXXXXX",
"XXXXXXXXXXXX....OOooXXXXXXXXXXXXXXXXXXXX........ooXXXXXXXXXXXXXX",
"XXXXXXXXXXXX....OOooXXXXXXXXXXXXXXXXXXXX........ooXXXXXXXXXXXXXX",
"XXXX....XX......ooXXXXXXXXXXXXXXXXXXXX..  ......ooXXXXXXXXXXXXXX",
"XXXX....XX......ooXXXXXXXXXXXXXXXXXXXX..  ......ooXXXXXXXXXXXXXX",
"XXXXXX..  ......ooXXXXXXXXXXXXXXXXXXXXXX..  ....ooXXXXXXXXXXXXXX",
"XXXXXX..  ......ooXXXXXXXXXXXXXXXXXXXXXX..  ....ooXXXXXXXXXXXXXX",
"..ooXXXX..XX..  ..XXXXXX..ooXXXXXXXXXXXXXX  ..  ..XXXXXXXXXXXXXX",
"..ooXXXX..XX..  ..XXXXXX..ooXXXXXXXXXXXXXX  ..  ..XXXXXXXXXXXXXX",
"....XXXXXX....  ......XX....XXXXXXooXXXX......  ..XXXXXXoooooooo",
"....XXXXXX....  ......XX....XXXXXXooXXXX......  ..XXXXXXoooooooo",
"................  ..............................................",
"................  ..............................................",
"................        ..                  ............        ",
"................        ..                  ............        ",
"XXXXOOOOooooooooooooXXXX....    ....OOOOooooooooOOOOOOOOooXX    ",
"XXXXOOOOooooooooooooXXXX....    ....OOOOooooooooOOOOOOOOooXX    ",
"XXooooooXXXXooooXXXXXXXXXXXX..  ..XXooXXXXXXXXooooXXXXXXXXoo..  ",
"XXooooooXXXXooooXXXXXXXXXXXX..  ..XXooXXXXXXXXooooXXXXXXXXoo..  ",
"OOooXXXXXXXXXXXXXXXXXXXXXXoo....OOooXXXXXXXXXXXXXXXXXXXXXXXX....",
"OOooXXXXXXXXXXXXXXXXXXXXXXoo....OOooXXXXXXXXXXXXXXXXXXXXXXXX....",
"OOXXXXXXXXXXXXXXXXXXXXXXXXoo....OOXXXXXXXXXXXXXXXXXXXXXXXXXXXX..",
"OOXXXXXXXXXXXXXXXXXXXXXXXXoo....OOXXXXXXXXXXXXXXXXXXXXXXXXXXXX..",
"ooXXXXXXXXXXXXXXXX..ooXXXX......OOooXXXXXXXXXXXXXXXXXXXXXXXXXX..",
"ooXXXXXXXXXXXXXXXX..ooXXXX......OOooXXXXXXXXXXXXXXXXXXXXXXXXXX..",
"ooXXXXXXXXXXXXXXXXXX..XX........OOXXXXXXXXXXXXXXXXXXXXXX........",
"ooXXXXXXXXXXXXXXXXXX..XX........OOXXXXXXXXXXXXXXXXXXXXXX........",
"ooXXXXXXXXXXXXXXXXXX....    ....ooXXXXXXXXXXXXXXXXXXXXXXXX..  ..",
"ooXXXXXXXXXXXXXXXXXX....    ....ooXXXXXXXXXXXXXXXXXXXXXXXX..  ..",
"ooXXXXXXXXXXooXXXXXXXXXX  ......ooXXXXXX..XXXXXXXXXXXXXXXXXX....",
"ooXXXXXXXXXXooXXXXXXXXXX  ......ooXXXXXX..XXXXXXXXXXXXXXXXXX....",
"..XXXXXXXX....ooXXXXXXXX......  ..XXXXXXXX..XXXXXXXX..ooXXXX..  ",
"..XXXXXXXX....ooXXXXXXXX......  ..XXXXXXXX..XXXXXXXX..ooXXXX..  ",
"..XXXXXX....  ........XXXX....  ..XXXXXXXX  ..XXXX......ooXX..  ",
"..XXXXXX....  ........XXXX....  ..XXXXXXXX  ..XXXX......ooXX..  ",
"  ............................    ................  ..  ......  ",
"  ............................    ................  ..  ......  ",
"    ........    ....                ............      ..        ",
"    ........    ....                ............      ..        "
};
