/* XPM */
static char *_____________[] = {
/* columns rows colors chars-per-pixel */
"64 64 3 1",
"  c #4D3F37",
". c #66584C",
"X c #A49278",
/* pixels */
"XXXX..XXXXXX..XXXXXXXX....XXXXXXXX......XXXXXXXX....XXXXXX..XX..",
"XXXX..XXXXXX..XXXXXXXX....XXXXXXXX......XXXXXXXX....XXXXXX..XX..",
"..    ..      XX..        XX..          XX..        ..          ",
"..    ..      XX..        XX..          XX..        ..          ",
"XX..  XX..    XXXX....    XXXX..        XXXX..      XX..        ",
"XX..  XX..    XXXX....    XXXX..        XXXX..      XX..        ",
"XX..  XX....  XXXXXX....  XXXX......    XXXX....    XX....  ..  ",
"XX..  XX....  XXXXXX....  XXXX......    XXXX....    XX....  ..  ",
"XX..  XX....  XXXX......  XXXXXX....    XXXX..      XX....  ..  ",
"XX..  XX....  XXXX......  XXXXXX....    XXXX..      XX....  ..  ",
"XX..  XXXX..  XXXX......  XXXXXX..      XXXX..      XX....  ..  ",
"XX..  XXXX..  XXXX......  XXXXXX..      XXXX..      XX....  ..  ",
"XX..  XXXX..  XXXX....    XXXXXX....    XXXX..      XX....  ..  ",
"XX..  XXXX..  XXXX....    XXXXXX....    XXXX..      XX....  ..  ",
"XX..  XXXX..  XXXX....    XXXXXXXX..    XXXX....    XX..    ..  ",
"XX..  XXXX..  XXXX....    XXXXXXXX..    XXXX....    XX..    ..  ",
"XX..  XXXX..  XXXX....    XXXXXX....    XXXX....    XX..    ..  ",
"XX..  XXXX..  XXXX....    XXXXXX....    XXXX....    XX..    ..  ",
"XX..  XXXX..  XXXX....    XXXXXX....    XXXX....    XX..    ..  ",
"XX..  XXXX..  XXXX....    XXXXXX....    XXXX....    XX..    ..  ",
"XX..  XXXX..  XXXX....    XXXXXX......  XXXX....    XX..    ..  ",
"XX..  XXXX..  XXXX....    XXXXXX......  XXXX....    XX..    ..  ",
"XX..  XXXX..  XXXX......  XXXXXX....    XXXX....    XX..    ..  ",
"XX..  XXXX..  XXXX......  XXXXXX....    XXXX....    XX..    ..  ",
"XX..  XX....  XXXX......  XXXX......    XXXX....    XX..    ..  ",
"XX..  XX....  XXXX......  XXXX......    XXXX....    XX..    ..  ",
"XX..  XX..    XXXX......  XXXXXX....    XXXX....    XX..    ..  ",
"XX..  XX..    XXXX......  XXXXXX....    XXXX....    XX..    ..  ",
"XX..  XX..    XXXXXX....  XXXXXX....    XXXX....    XX..    ..  ",
"XX..  XX..    XXXXXX....  XXXXXX....    XXXX....    XX..    ..  ",
"XX..  XX....  XXXXXX....  XXXXXX....    XXXX....    XX..    ..  ",
"XX..  XX....  XXXXXX....  XXXXXX....    XXXX....    XX..    ..  ",
"XX..  XX....  XXXXXX....  XXXXXX....    XX......    XX..    ..  ",
"XX..  XX....  XXXXXX....  XXXXXX....    XX......    XX..    ..  ",
"XX..  XX....  XXXXXX....  XXXXXX....    XXXX....    XX..    ..  ",
"XX..  XX....  XXXXXX....  XXXXXX....    XXXX....    XX..    ..  ",
"XX..  XX....  XXXX......  XXXXXX....    XXXX....    XX..    ..  ",
"XX..  XX....  XXXX......  XXXXXX....    XXXX....    XX..    ..  ",
"XX..  XX....  XXXX....    XXXXXXXX..    XXXX..      XX..    ..  ",
"XX..  XX....  XXXX....    XXXXXXXX..    XXXX..      XX..    ..  ",
"XX..  XX....  XXXX....    XXXXXX....    XXXX....    XX..    ..  ",
"XX..  XX....  XXXX....    XXXXXX....    XXXX....    XX..    ..  ",
"XX..  XX....  XXXX....    XXXXXX....    XXXX....    XX....  ..  ",
"XX..  XX....  XXXX....    XXXXXX....    XXXX....    XX....  ..  ",
"XX..  XXXX    XXXX......  XXXXXX....    XXXX....    XX....  ..  ",
"XX..  XXXX    XXXX......  XXXXXX....    XXXX....    XX....  ..  ",
"XX..  XX..    XXXX......  XXXXXX..      XXXX....    XX....  ..  ",
"XX..  XX..    XXXX......  XXXXXX..      XXXX....    XX....  ..  ",
"XX..  XX..    XXXX......  XXXXXX....    XXXX....    XX..    ..  ",
"XX..  XX..    XXXX......  XXXXXX....    XXXX....    XX..    ..  ",
"XX..  XX....  XXXX......  XXXXXX....    XXXX....    XX..    ..  ",
"XX..  XX....  XXXX......  XXXXXX....    XXXX....    XX..    ..  ",
"XX..  XXXX..  XXXX....    XXXXXX....    XXXX..      XX..    ..  ",
"XX..  XXXX..  XXXX....    XXXXXX....    XXXX..      XX..    ..  ",
"XX..  XXXX..  XXXX....    XXXXXX....    XXXX..      XX..    ..  ",
"XX..  XXXX..  XXXX....    XXXXXX....    XXXX..      XX..    ..  ",
"XX..  XXXX..  XXXX....    XXXX......    XXXX..      XX..    ..  ",
"XX..  XXXX..  XXXX....    XXXX......    XXXX..      XX..    ..  ",
"XX..  XX....  XXXXXX....  XXXXXX......  XXXX..      XX..    ..  ",
"XX..  XX....  XXXXXX....  XXXXXX......  XXXX..      XX..    ..  ",
"XX..  XX....  XXXXXX....  XXXXXX....    XXXX....    XX..    ..  ",
"XX..  XX....  XXXXXX....  XXXXXX....    XXXX....    XX..    ..  ",
"..    ..      ......      ......        ....        ..          ",
"..    ..      ......      ......        ....        ..          "
};
