/* XPM */
static char *_____________[] = {
/* columns rows colors chars-per-pixel */
"64 64 5 1",
"  c #342A27",
". c #4E4634",
"X c #6B624B",
"o c #8A7F67",
"O c #9D927C",
/* pixels */
"XXXXOOOOOOOOXXXXooooOOOOOOOOOOOOOOOOooOOOOOOOOOOXXXXooOOOOooooXX",
"XXXXOOOOOOOOXXXXooooOOOOOOOOOOOOOOOOooOOOOOOOOOOXXXXooOOOOooooXX",
"XXooooOOOOooooooooooooOOOOOOOOooooooooooooOOOOooooooooooooooXX..",
"XXooooOOOOooooooooooooOOOOOOOOooooooooooooOOOOooooooooooooooXX..",
"XXooXXXXXXXXXXXXXXXXXXXXXXXXXXXXXXXXXXXXXXXXXXXXXXXXXXXXXXXX..  ",
"XXooXXXXXXXXXXXXXXXXXXXXXXXXXXXXXXXXXXXXXXXXXXXXXXXXXXXXXXXX..  ",
"XXooXXXXXXXXXXXXXXXXXXXXXXXXXXXXXXXXXXXXXXXXXXXXXXXXXXXXXXXX    ",
"XXooXXXXXXXXXXXXXXXXXXXXXXXXXXXXXXXXXXXXXXXXXXXXXXXXXXXXXXXX    ",
"ooooXXXXXXXXXXXXXXXXXXXXXXXXXXXXXXXXXXXXXXXXXXXXXXXXXXXXXXXX    ",
"ooooXXXXXXXXXXXXXXXXXXXXXXXXXXXXXXXXXXXXXXXXXXXXXXXXXXXXXXXX    ",
"ooooXXXXXX                              ....        ..XXXXXX    ",
"ooooXXXXXX                              ....        ..XXXXXX    ",
"OOooXXXXXX..    ....XXXX....    ....    ........    ooXXXXXX    ",
"OOooXXXXXX..    ....XXXX....    ....    ........    ooXXXXXX    ",
"ooooXXXXXX..  ..XXXXXXXXXXXXXXXXXXXXXXXXXXXXXXXXXXXXooXXXXXX    ",
"ooooXXXXXX..  ..XXXXXXXXXXXXXXXXXXXXXXXXXXXXXXXXXXXXooXXXXXX    ",
"XXooXXXXXX  ..XXXXXXXXXXXXXXXXXXXXXXXXXXXXXXXXXXXXXXooXXXXXX..  ",
"XXooXXXXXX  ..XXXXXXXXXXXXXXXXXXXXXXXXXXXXXXXXXXXXXXooXXXXXX..  ",
"XXooXXXXXX  ..XXXXXXXXXXXXXXXXXXXXXXXXXXXXXXXXXXXXXXooXXXXXX..  ",
"XXooXXXXXX  ..XXXXXXXXXXXXXXXXXXXXXXXXXXXXXXXXXXXXXXooXXXXXX..  ",
"XXooXXXXXX....XXXXXXXXXXXXXXXXXXXXXXXXXXXXXXXXXXXXXXOOXXXXXX....",
"XXooXXXXXX....XXXXXXXXXXXXXXXXXXXXXXXXXXXXXXXXXXXXXXOOXXXXXX....",
"XXooXXXXXX....XXXXXXXXOOOOOOOOOOOOOOOOOOOOXXXXXXXXXXooXXXXXX  ..",
"XXooXXXXXX....XXXXXXXXOOOOOOOOOOOOOOOOOOOOXXXXXXXXXXooXXXXXX  ..",
"ooooXXXXXX    XXXXXXXXooOOOOOOooooOOOOoo..XXXXXXXXXXooXXXXXX  ..",
"ooooXXXXXX    XXXXXXXXooOOOOOOooooOOOOoo..XXXXXXXXXXooXXXXXX  ..",
"ooooXXXXXX    XXXXXXXXooooXXXXXXXXXXXX..  XXXXXXXXXXooXXXXXX  ..",
"ooooXXXXXX    XXXXXXXXooooXXXXXXXXXXXX..  XXXXXXXXXXooXXXXXX  ..",
"XXooXXXXXX    XXXXXXXXOOooXXXXXXXXXXXX..  XXXXXXXXXXooXXXXXX    ",
"XXooXXXXXX    XXXXXXXXOOooXXXXXXXXXXXX..  XXXXXXXXXXooXXXXXX    ",
"XXooXXXXXX    XXXXXXXXOOooXXXXXXXXXXXX..  ..XXXXXXXXooXXXXXX    ",
"XXooXXXXXX    XXXXXXXXOOooXXXXXXXXXXXX..  ..XXXXXXXXooXXXXXX    ",
"ooooXXXXXX    XXXXXXXXOOooXXXXXXXXXXXX..  ..XXXXXXXXooXXXXXX    ",
"ooooXXXXXX    XXXXXXXXOOooXXXXXXXXXXXX..  ..XXXXXXXXooXXXXXX    ",
"ooooXXXXXX    XXXXXXXXOOooXXXXXXXXXXXX..  ..XXXXXXXXooXXXXXX    ",
"ooooXXXXXX    XXXXXXXXOOooXXXXXXXXXXXX..  ..XXXXXXXXooXXXXXX    ",
"ooooXXXXXX  ..XXXXXXXXooooXXXXXXXXXXXX..  ..XXXXXXXXooXXXXXX    ",
"ooooXXXXXX  ..XXXXXXXXooooXXXXXXXXXXXX..  ..XXXXXXXXooXXXXXX    ",
"ooooXXXXXX  ..XXXXXXXXooXX............    ..XXXXXXXXOOXXXXXX    ",
"ooooXXXXXX  ..XXXXXXXXooXX............    ..XXXXXXXXOOXXXXXX    ",
"ooooXXXXXX..  XXXXXXXX                    ..XXXXXXXXOOXXXXXX    ",
"ooooXXXXXX..  XXXXXXXX                    ..XXXXXXXXOOXXXXXX    ",
"ooooXXXXXX..  XXXXXXXX....................XXXXXXXXXXOOXXXXXX    ",
"ooooXXXXXX..  XXXXXXXX....................XXXXXXXXXXOOXXXXXX    ",
"XXooXXXXXX....XXXXXXXXXXXXXXXXXXXXXXXXXXXXXXXXXXXXXXooXXXXXX    ",
"XXooXXXXXX....XXXXXXXXXXXXXXXXXXXXXXXXXXXXXXXXXXXXXXooXXXXXX    ",
"XXooXXXXXX....XXXXXXXXXXXXXXXXXXXXXXXXXXXXXXXXXXXXXXooXXXXXX..  ",
"XXooXXXXXX....XXXXXXXXXXXXXXXXXXXXXXXXXXXXXXXXXXXXXXooXXXXXX..  ",
"ooooXXXXXX  ..XXXXXXXXXXXXXXXXXXXXXXXXXXXXXXXXXXXXXXooXXXXXX....",
"ooooXXXXXX  ..XXXXXXXXXXXXXXXXXXXXXXXXXXXXXXXXXXXXXXooXXXXXX....",
"ooooXXXXXX  ..XXXXXXXXXXXXXXXXXXXXXXXXXXXXXXXXXXXXXXOOXXXXXX  ..",
"ooooXXXXXX  ..XXXXXXXXXXXXXXXXXXXXXXXXXXXXXXXXXXXXXXOOXXXXXX  ..",
"OOooXXXXXXOOOOOOOOOOOOOOOOOOooooOOOOOOOOOOOOOOOOOOOOOOXXXXXX    ",
"OOooXXXXXXOOOOOOOOOOOOOOOOOOooooOOOOOOOOOOOOOOOOOOOOOOXXXXXX    ",
"OOooXXXXXXXXXXXXXXXXXXXXXXXXXXXXXXXXXXXXXXXXXXXXXXXXXXXXXXXX    ",
"OOooXXXXXXXXXXXXXXXXXXXXXXXXXXXXXXXXXXXXXXXXXXXXXXXXXXXXXXXX    ",
"ooooXXXXXXXXXXXXXXXXXXXXXXXXXXXXXXXXXXXXXXXXXXXXXXXXXXXXXXXX    ",
"ooooXXXXXXXXXXXXXXXXXXXXXXXXXXXXXXXXXXXXXXXXXXXXXXXXXXXXXXXX    ",
"ooooXXXXXXXXXXXXXXXXXXXXXXXXXXXXXXXXXXXXXXXXXXXXXXXXXXXXXXXX    ",
"ooooXXXXXXXXXXXXXXXXXXXXXXXXXXXXXXXXXXXXXXXXXXXXXXXXXXXXXXXX    ",
"ooXX............      ............  ..........    ..      ....  ",
"ooXX............      ............  ..........    ..      ....  ",
"XX..........XXXX        ........    ........    XXXX        ....",
"XX..........XXXX        ........    ........    XXXX        ...."
};
