/* XPM */
static char *_____________[] = {
/* columns rows colors chars-per-pixel */
"64 64 3 1",
"  c #332A27",
". c #5B3931",
"X c #7E5140",
/* pixels */
"XXXXXXXXXXXXXXXXXXXXXXXXXXXXXXXXXXXXXXXXXXXXXXXXXXXXXXXXXXXXXXXX",
"XXXXXXXXXXXXXXXXXXXXXXXXXXXXXXXXXXXXXXXXXXXXXXXXXXXXXXXXXXXXXXXX",
"XX..........................................................  ..",
"XX..........................................................  ..",
"XX  ....................................................      ..",
"XX  ....................................................      ..",
"XX..XXXXXXXXXXXXXXXXXXXXXXXXXXXXXXXXXXXXXXXXXXXXXXXXXXXX..    ..",
"XX..XXXXXXXXXXXXXXXXXXXXXXXXXXXXXXXXXXXXXXXXXXXXXXXXXXXX..    ..",
"XX..  ............XXXXXXXXXXXXXXXXXX......XX..............    ..",
"XX..  ............XXXXXXXXXXXXXXXXXX......XX..............    ..",
"XX....XXXXXXXXXXXXXXXXXXXXXXXXXXXXXXXXXXXXXXXXXXXXXXXXXXXX..  ..",
"XX....XXXXXXXXXXXXXXXXXXXXXXXXXXXXXXXXXXXXXXXXXXXXXXXXXXXX..  ..",
"XX..XXXXXXXXXXXXXXXXXXXXXXXXXXXXXXXXXXXXXXXXXXXXXXXXXX....    ..",
"XX..XXXXXXXXXXXXXXXXXXXXXXXXXXXXXXXXXXXXXXXXXXXXXXXXXX....    ..",
"XX..  ..XX..XXXXXXXX..........XXXXXXXX..XXXXXXXX......        ..",
"XX..  ..XX..XXXXXXXX..........XXXXXXXX..XXXXXXXX......        ..",
"XX..XXXXXXXXXXXXXXXXXXXXXXXX..........  ....XXXXXXXXXXXX..    ..",
"XX..XXXXXXXXXXXXXXXXXXXXXXXX..........  ....XXXXXXXXXXXX..    ..",
"..    ............................        ......  ..            ",
"..    ............................        ......  ..            ",
"XX..XXXXXXXXXXXXXXXXXXXXXXXXXXXXXXXXXXXXXXXXXXXXXXXXXXXXXX..  ..",
"XX..XXXXXXXXXXXXXXXXXXXXXXXXXXXXXXXXXXXXXXXXXXXXXXXXXXXXXX..  ..",
"XX..  ........XX..XXXXXXXXXXXXXXXXXXXXXXXXXX........XX....    ..",
"XX..  ........XX..XXXXXXXXXXXXXXXXXXXXXXXXXX........XX....    ..",
"XX..XXXXXX..XXXXXXXXXXXX............XXXXXXXXXXXXXXXXXXXX....  ..",
"XX..XXXXXX..XXXXXXXXXXXX............XXXXXXXXXXXXXXXXXXXX....  ..",
"XX....XXXXXXXXXXXXXXXXXXXXXXXXXXXXXXXXXXXXXXXXXXXXXXXXXXXX..  ..",
"XX....XXXXXXXXXXXXXXXXXXXXXXXXXXXXXXXXXXXXXXXXXXXXXXXXXXXX..  ..",
"XX..  ..XXXXXXXXXXXXXXXXXXXXXXXXXXXXXXXXXXXXXXXXXXXXXXXX..    ..",
"XX..  ..XXXXXXXXXXXXXXXXXXXXXXXXXXXXXXXXXXXXXXXXXXXXXXXX..    ..",
"XX..XXXXXXXX..................XX..XXXXXXXXXXXX........XXXX..  ..",
"XX..XXXXXXXX..................XX..XXXXXXXXXXXX........XXXX..  ..",
"..  ..........            ..  ....................              ",
"..  ..........            ..  ....................              ",
"XX..XXXXXXXXXXXXXXXXXXXXXXXXXXXXXXXXXXXXXXXXXXXXXXXXXXXXXX    ..",
"XX..XXXXXXXXXXXXXXXXXXXXXXXXXXXXXXXXXXXXXXXXXXXXXXXXXXXXXX    ..",
"XX......XXXXXXXXXXXXXXXXXXXXXXXXXXXXXXXXXX..XX..........      ..",
"XX......XXXXXXXXXXXXXXXXXXXXXXXXXXXXXXXXXX..XX..........      ..",
"XX..XXXXXXXXXXXXXXXXXXXXXXXXXXXXXXXXXXXXXXXXXXXXXXXXXXXX....  ..",
"XX..XXXXXXXXXXXXXXXXXXXXXXXXXXXXXXXXXXXXXXXXXXXXXXXXXXXX....  ..",
"XX....XXXXXX........XX......XXXXXXXXXXXXXXXXXXXXXXXX......    ..",
"XX....XXXXXX........XX......XXXXXXXXXXXXXXXXXXXXXXXX......    ..",
"XX..    ......XXXXXXXXXXXXXXXXXXXXXXXXXXXXXXXXXXXXXXXXXXXX..  ..",
"XX..    ......XXXXXXXXXXXXXXXXXXXXXXXXXXXXXXXXXXXXXXXXXXXX..  ..",
"XX..XXXXXXXXXXXXXXXX..............XXXXXX......XX..XXXXXX....  ..",
"XX..XXXXXXXXXXXXXXXX..............XXXXXX......XX..XXXXXX....  ..",
"..  ..................        ..  ........    ..                ",
"..  ..................        ..  ........    ..                ",
"XX..XXXXXXXXXXXXXXXXXXXXXXXXXXXXXXXXXXXXXXXXXXXXXXXXXXXXXX..  ..",
"XX..XXXXXXXXXXXXXXXXXXXXXXXXXXXXXXXXXXXXXXXXXXXXXXXXXXXXXX..  ..",
"XX......XXXXXXXXXXXXXXXXXXXXXXXXXXXXXXXXXXXXXXXXXX........    ..",
"XX......XXXXXXXXXXXXXXXXXXXXXXXXXXXXXXXXXXXXXXXXXX........    ..",
"XX..XXXXXXXXXXXXXXXXXXXXXXXXXX............XXXXXXXXXXXXXX..    ..",
"XX..XXXXXXXXXXXXXXXXXXXXXXXXXX............XXXXXXXXXXXXXX..    ..",
"XX..  ......XX..XXXXXXXX........XXXXXXXXXXXXXXXXXXXXXXXXXX..  ..",
"XX..  ......XX..XXXXXXXX........XXXXXXXXXXXXXXXXXXXXXXXXXX..  ..",
"XX..XXXXXXXXXXXXXXXXXXXXXXXXXXXXXXXXXXXXXXXXXXXXXXXXXXXX..    ..",
"XX..XXXXXXXXXXXXXXXXXXXXXXXXXXXXXXXXXXXXXXXXXXXXXXXXXXXX..    ..",
"XX....XXXXXX............XX......XXXXXXXXXXXXXX........XXXX..  ..",
"XX....XXXXXX............XX......XXXXXXXXXXXXXX........XXXX..  ..",
"....    ..                    ....  ..                          ",
"....    ..                    ....  ..                          ",
"XX..............................................................",
"XX.............................................................."
};
