/* XPM */
static char *_____________[] = {
/* columns rows colors chars-per-pixel */
"64 64 3 1",
"  c #332A27",
". c #5B3931",
"X c #7E5140",
/* pixels */
"    ......XX..XXXXXX..XXXX..XX..XX..XXXXXX..XXXXXXXX..XX....    ",
"    ......XX..XXXXXX..XXXX..XX..XX..XXXXXX..XXXXXXXX..XX....    ",
"    ......XX....XXXX..XXXXXXXX..XX..XXXXXX..XXXXXXXX..XX....    ",
"    ......XX....XXXX..XXXXXXXX..XX..XXXXXX..XXXXXXXX..XX....    ",
"  ......XXXX  ..XXXX  XXXXXXXX              XXXXXXXX..XX....    ",
"  ......XXXX  ..XXXX  XXXXXXXX              XXXXXXXX..XX....    ",
"  ......XXXX          XXXXXXXXXX....  ......XXXX..XX..XX..      ",
"  ......XXXX          XXXXXXXXXX....  ......XXXX..XX..XX..      ",
"    ....XXXX  ......  XXXXXXXXXX..XX....XX..XXXX..XX....        ",
"    ....XXXX  ......  XXXXXXXXXX..XX....XX..XXXX..XX....        ",
"    ....XXXX..XX..XX....XXXXXXXX..XX..XXXX....XX..XX  ..        ",
"    ....XXXX..XX..XX....XXXXXXXX..XX..XXXX....XX..XX  ..        ",
"      ..XX....XXXXXX....XXXXXXXX..XXXXXXXX..          XX  ..    ",
"      ..XX....XXXXXX....XXXXXXXX..XXXXXXXX..          XX  ..    ",
"      ..XX....XXXXXX....XXXX..XX..XXXXXXXXXX....  ..  XX....    ",
"      ..XX....XXXXXX....XXXX..XX..XXXXXXXXXX....  ..  XX....    ",
"      ..XX..  XXXXXX              XXXXXXXXXX......XX..XX....    ",
"      ..XX..  XXXXXX              XXXXXXXXXX......XX..XX....    ",
"              XXXXXX......  ......XXXXXXXXXX..XX..XX..XX....    ",
"              XXXXXX......  ......XXXXXXXXXX..XX..XX..XX....    ",
"        ..  XXXX..XX..XXXX..XX....XXXX..XXXX..XXXXXX..XX....    ",
"        ..  XXXX..XX..XXXX..XX....XXXX..XXXX..XXXXXX..XX....    ",
"    ....XX..XXXXXXXX..XXXX..XXXX..XXXX..XXXX..XXXXXX..XX....    ",
"    ....XX..XXXXXXXX..XXXX..XXXX..XXXX..XXXX..XXXXXX..XX....    ",
"    ....XX..XXXX..XX..XXXXXXXX  ..            XXXXXX..XX....    ",
"    ....XX..XXXX..XX..XXXXXXXX  ..            XXXXXX..XX....    ",
"      ..XX..XXXX..XX..XXXXXXXX..XX........  ..XXXXXX..XX..      ",
"      ..XX..XXXX..XX..XXXXXXXX..XX........  ..XXXXXX..XX..      ",
"      ..XX            XXXXXXXX..XXXX..XXXX....XXXX....XX..      ",
"      ..XX            XXXXXXXX..XXXX..XXXX....XXXX....XX..      ",
"    ....XX........  XXXXXXXXXX..XXXX..XXXXXX..XXXX  ..          ",
"    ....XX........  XXXXXXXXXX..XXXX..XXXXXX..XXXX  ..          ",
"    ....XX..XX..XX..XXXX..XXXX..XXXXXXXXXXXX..XXXX  XX..        ",
"    ....XX..XX..XX..XXXX..XXXX..XXXXXXXXXXXX..XXXX  XX..        ",
"    ....XX..XXXXXX..XXXX..XX....XXXXXXXXXXXX..XXXX..XXXX....    ",
"    ....XX..XXXXXX..XXXX..XX....XXXXXXXXXXXX..XXXX..XXXX....    ",
"    ....XX..XX..XX..XX....XX  ..XXXXXXXX..XX..XX....XXXX....    ",
"    ....XX..XX..XX..XX....XX  ..XXXXXXXX..XX..XX....XXXX....    ",
"          ..XXXXXX            ..XXXXXXXX..XX....    XXXX....    ",
"          ..XXXXXX            ..XXXXXXXX..XX....    XXXX....    ",
"        ..XXXXXXXX..  ....  ....XX..XXXXXXXX......  XX........  ",
"        ..XXXXXXXX..  ....  ....XX..XXXXXXXX......  XX........  ",
"    ..  ..XXXXXXXX....XX........XXXXXXXX..XX..XXXX..XX........  ",
"    ..  ..XXXXXXXX....XX........XXXXXXXX..XX..XXXX..XX........  ",
"    ..  ..XX..XXXX..XXXXXX..XX..XX..XX..  XX..XXXX..XX......    ",
"    ..  ..XX..XXXX..XXXXXX..XX..XX..XX..  XX..XXXX..XX......    ",
"    ......XX..XXXX..XXXXXXXXXX                XXXX..XX..  ..    ",
"    ......XX..XXXX..XXXXXXXXXX                XXXX..XX..  ..    ",
"    ......XX..XX....XXXXXXXXXX........  ......XXXX..XX..  ..    ",
"    ......XX..XX....XXXXXXXXXX........  ......XXXX..XX..  ..    ",
"    ......            XX..XXXXXX............XXXXXX..XX..  ..    ",
"    ......            XX..XXXXXX............XXXXXX..XX..  ..    ",
"    ......  ........  XX..XXXXXX....XX..XX..XXXXXX              ",
"    ......  ........  XX..XXXXXX....XX..XX..XXXXXX              ",
"      ......XXXX..XX..XX..XXXXXX..XXXX..XX..XX..XXXX  ..        ",
"      ......XXXX..XX..XX..XXXXXX..XXXX..XX..XX..XXXX  ..        ",
"              XX..XX..XX..XXXXXX..XXXXXXXX..XX..XXXX..XX....    ",
"              XX..XX..XX..XXXXXX..XXXXXXXX..XX..XXXX..XX....    ",
"      ......  XX..XX              XXXX..XX          ..XX....    ",
"      ......  XX..XX              XXXX..XX          ..XX....    ",
"    ....XXXX..XXXXXX  ............XXXXXXXXXX  ........XX....    ",
"    ....XXXX..XXXXXX  ............XXXXXXXXXX  ........XX....    ",
"    ....XXXX..XXXXXX..XXXX..XXXX..XX..XXXXXX..XXXXXX..XX....    ",
"    ....XXXX..XXXXXX..XXXX..XXXX..XX..XXXXXX..XXXXXX..XX....    "
};
